<?xml version="1.0" encoding="UTF-8"?>
<svg version="1.1" xmlns="http://www.w3.org/2000/svg" width="598" height="312">
<path d="M0 0 C197.34 0 394.68 0 598 0 C598 102.96 598 205.92 598 312 C400.66 312 203.32 312 0 312 C0 209.04 0 106.08 0 0 Z " fill="#000505" transform="translate(0,0)"/>
<path d="M0 0 C0.66 0 1.32 0 2 0 C2.495 3.465 2.495 3.465 3 7 C3.99 6.67 4.98 6.34 6 6 C6.36923077 12.4 6.36923077 12.4 4.5 15.4375 C4.005 15.953125 3.51 16.46875 3 17 C4.65 16.34 6.3 15.68 8 15 C8.495 15.99 8.495 15.99 9 17 C9.94875 16.175 10.8975 15.35 11.875 14.5 C14.75 12 14.75 12 17 12 C17 13.32 17 14.64 17 16 C17.94875 15.34 18.8975 14.68 19.875 14 C23 12 23 12 25 12 C24.67 12.94875 24.34 13.8975 24 14.875 C22.89840809 17.77062452 22.89840809 17.77062452 23 20 C23.99 20 24.98 20 26 20 C25.67 21.32 25.34 22.64 25 24 C25.763125 23.67 26.52625 23.34 27.3125 23 C30 22 30 22 33 22 C32.43628586 25.26954202 31.50037734 26.82575883 29 29 C30.32 29.66 31.64 30.32 33 31 C32.0409375 32.11375 32.0409375 32.11375 31.0625 33.25 C29.15188513 35.79748649 28.59880844 37.00595782 28 40 C27.34 40.99 26.68 41.98 26 43 C26.7734375 42.505 26.7734375 42.505 27.5625 42 C30.78026512 40.67989123 33.5570528 40.86757895 37 41 C36.195625 41.9075 35.39125 42.815 34.5625 43.75 C32.58857329 46.10309908 31.36122533 47.86938046 31 51 C32.423125 51.185625 32.423125 51.185625 33.875 51.375 C37 52 37 52 39 54 C35.77208445 56.1519437 34.71599191 56.20086443 31 56 C31.165 56.61875 31.33 57.2375 31.5 57.875 C32 60 32 60 32 62 C33.98 62.99 35.96 63.98 38 65 C37.34 65.66 36.68 66.32 36 67 C37.65 68.98 39.3 70.96 41 73 C38.03 73 35.06 73 32 73 C32.66 74.32 33.32 75.64 34 77 C30.625 77.125 30.625 77.125 27 77 C26.34 76.34 25.68 75.68 25 75 C25 74.01 25 73.02 25 72 C25.99 71.67 26.98 71.34 28 71 C27.05125 70.71125 26.1025 70.4225 25.125 70.125 C22 69 22 69 20 67 C20 66.01 20 65.02 20 64 C18.14375 64.0309375 18.14375 64.0309375 16.25 64.0625 C13.3359175 64.06766681 10.79046673 63.93015558 8 63 C8 64.32 8 65.64 8 67 C1.73412055 66.05887977 -3.04618438 65.06466923 -8 61 C-8.33 60.34 -8.66 59.68 -9 59 C-8.01 58.67 -7.02 58.34 -6 58 C-7.98 57.505 -7.98 57.505 -10 57 C-9.67 56.401875 -9.34 55.80375 -9 55.1875 C-7.79212012 52.94613529 -7.79212012 52.94613529 -8 50 C-5.67885609 46.90514145 -2.44060517 45.60561575 1 44 C0.34 43.34 -0.32 42.68 -1 42 C-2.485 42.495 -2.485 42.495 -4 43 C-4 41.68 -4 40.36 -4 39 C-4.66 38.67 -5.32 38.34 -6 38 C-5.01 36.68 -4.02 35.36 -3 34 C-3.99 34 -4.98 34 -6 34 C-6 34.66 -6 35.32 -6 36 C-6.66 36 -7.32 36 -8 36 C-7.67 33.03 -7.34 30.06 -7 27 C-8.98 27 -10.96 27 -13 27 C-13.66 28.98 -14.32 30.96 -15 33 C-13.68 32.34 -12.36 31.68 -11 31 C-9.45923813 32.54076187 -9.75643301 33.9844485 -9.6875 36.125 C-9.71154103 41.13354803 -11.21289772 43.90644353 -14 48 C-14.99 48 -15.98 48 -17 48 C-17 48.66 -17 49.32 -17 50 C-22.75 50.125 -22.75 50.125 -25 49 C-24.505 49.45375 -24.01 49.9075 -23.5 50.375 C-22 52 -22 52 -22 54 C-24.97 53.505 -24.97 53.505 -28 53 C-28 53.66 -28 54.32 -28 55 C-27.01 55 -26.02 55 -25 55 C-25.33 55.99 -25.66 56.98 -26 58 C-24.68 58 -23.36 58 -22 58 C-22 58.66 -22 59.32 -22 60 C-23.64453125 61.1484375 -23.64453125 61.1484375 -25.8125 62.375 C-30.11636498 64.96100728 -30.11636498 64.96100728 -33 69 C-32.67 69.99 -32.34 70.98 -32 72 C-34.43970559 75.75339322 -37.00645609 78.00322804 -41 80 C-41.66 80 -42.32 80 -43 80 C-43 80.99 -43 81.98 -43 83 C-42.01 83.495 -42.01 83.495 -41 84 C-41.495 85.485 -41.495 85.485 -42 87 C-41.34 87 -40.68 87 -40 87 C-39.773125 86.13375 -39.54625 85.2675 -39.3125 84.375 C-37.74110401 80.33426745 -35.97907516 78.12802891 -33 75 C-32.34 75 -31.68 75 -31 75 C-30.7525 74.113125 -30.505 73.22625 -30.25 72.3125 C-28.6341196 68.03041693 -26.75247422 65.02227663 -22.75 62.6875 C-22.1725 62.460625 -21.595 62.23375 -21 62 C-21 63.65 -21 65.3 -21 67 C-20.34 65.35 -19.68 63.7 -19 62 C-18.34 62 -17.68 62 -17 62 C-16.82057837 65.94727588 -16.90649311 68.5980513 -19 72 C-20.32 72 -21.64 72 -23 72 C-23.66 72.66 -24.32 73.32 -25 74 C-23.23470405 75.21690533 -23.23470405 75.21690533 -21 76 C-18.76529595 75.21690533 -18.76529595 75.21690533 -17 74 C-17 75.98 -17 77.96 -17 80 C-16.67 79.34 -16.34 78.68 -16 78 C-15.34 78 -14.68 78 -14 78 C-13.01 80.31 -12.02 82.62 -11 85 C-9.35 84.67 -7.7 84.34 -6 84 C-4.79727181 86.40545638 -4.89928528 87.94996953 -4.9375 90.625 C-4.94652344 91.44226563 -4.95554687 92.25953125 -4.96484375 93.1015625 C-4.97644531 93.72804688 -4.98804688 94.35453125 -5 95 C-5.99 95.495 -5.99 95.495 -7 96 C-7 97.32 -7 98.64 -7 100 C-6.38125 99.79375 -5.7625 99.5875 -5.125 99.375 C-4.42375 99.25125 -3.7225 99.1275 -3 99 C-1 101 -1 101 -0.875 104.625 C-0.91625 105.73875 -0.9575 106.8525 -1 108 C-2.32 108 -3.64 108 -5 108 C-5.66 109.98 -6.32 111.96 -7 114 C-10.875 110.25 -10.875 110.25 -12 108 C-12.33 108.66 -12.66 109.32 -13 110 C-13.66 110 -14.32 110 -15 110 C-15.22174933 108.54364629 -15.42698698 107.08477044 -15.625 105.625 C-15.74101562 104.81289062 -15.85703125 104.00078125 -15.9765625 103.1640625 C-15.98816406 102.09285156 -15.98816406 102.09285156 -16 101 C-15.34 100.34 -14.68 99.68 -14 99 C-13.34 99 -12.68 99 -12 99 C-12 96.69 -12 94.38 -12 92 C-12.99 92.33 -13.98 92.66 -15 93 C-15.433125 92.0409375 -15.433125 92.0409375 -15.875 91.0625 C-16.82823451 88.84793921 -16.82823451 88.84793921 -19 88 C-19.66 89.65 -20.32 91.3 -21 93 C-19.68 93.33 -18.36 93.66 -17 94 C-16.75 99.625 -16.75 99.625 -19 103 C-19.66 103 -20.32 103 -21 103 C-21 102.01 -21 101.02 -21 100 C-21.66 100 -22.32 100 -23 100 C-23.144375 101.11375 -23.28875 102.2275 -23.4375 103.375 C-24 107 -24 107 -25 109 C-25.66 109 -26.32 109 -27 109 C-27.125 101.25 -27.125 101.25 -26 99 C-26.45375 99.495 -26.9075 99.99 -27.375 100.5 C-29 102 -29 102 -31 102 C-31.35233161 96.62694301 -31.35233161 96.62694301 -31 94 C-29 92 -29 92 -27 91 C-26.67 91.33 -26.34 91.66 -26 92 C-26 90.35 -26 88.7 -26 87 C-27.65 87.99 -29.3 88.98 -31 90 C-31.33 88.02 -31.66 86.04 -32 84 C-34.27157197 86.80643274 -34.27157197 86.80643274 -34 89.9375 C-34 93.01639392 -34.41555055 94.42526965 -36 97 C-35.01 96.67 -34.02 96.34 -33 96 C-33.61090226 102.47556391 -33.61090226 102.47556391 -35.4375 104.9375 C-37 106 -37 106 -39 106 C-39 105.01 -39 104.02 -39 103 C-40.175625 103.99 -40.175625 103.99 -41.375 105 C-44 107 -44 107 -46 107 C-46.20140476 103.37471432 -45.85776765 101.13498292 -44 98 C-46.475 98.99 -46.475 98.99 -49 100 C-48.01 97.03 -47.02 94.06 -46 91 C-46.99 91 -47.98 91 -49 91 C-49 90.01 -49 89.02 -49 88 C-50.11375 88.680625 -51.2275 89.36125 -52.375 90.0625 C-54.2734375 91.22265625 -54.2734375 91.22265625 -56 92 C-56.66 91.67 -57.32 91.34 -58 91 C-56.68 88.69 -55.36 86.38 -54 84 C-54.66 84 -55.32 84 -56 84 C-55.3125 81.5625 -55.3125 81.5625 -54 79 C-51.375 78.1875 -51.375 78.1875 -49 78 C-49 77.34 -49 76.68 -49 76 C-50.485 75.505 -50.485 75.505 -52 75 C-51.505 73.515 -51.505 73.515 -51 72 C-52.485 72.99 -52.485 72.99 -54 74 C-56.33199388 74.07905064 -58.66832622 74.08798769 -61 74 C-61 73.01 -61 72.02 -61 71 C-63.64 71 -66.28 71 -69 71 C-68.67 69.68 -68.34 68.36 -68 67 C-70.31 66.67 -72.62 66.34 -75 66 C-73.25 64 -73.25 64 -71 62 C-69.68 62 -68.36 62 -67 62 C-67 61.34 -67 60.68 -67 60 C-68.32 59.67 -69.64 59.34 -71 59 C-69.375 57.4375 -69.375 57.4375 -67 56 C-63.75 56.3125 -63.75 56.3125 -61 57 C-61.99 59.475 -61.99 59.475 -63 62 C-62.01 61.505 -62.01 61.505 -61 61 C-58.3276379 60.86584528 -55.67749512 60.95681459 -53 61 C-53 60.34 -53 59.68 -53 59 C-53.99 59 -54.98 59 -56 59 C-55.67 58.01 -55.34 57.02 -55 56 C-56.11375 55.855625 -57.2275 55.71125 -58.375 55.5625 C-62 55 -62 55 -64 54 C-64 53.34 -64 52.68 -64 52 C-63.34 52 -62.68 52 -62 52 C-62 51.34 -62 50.68 -62 50 C-62.94875 49.896875 -63.8975 49.79375 -64.875 49.6875 C-68 49 -68 49 -70 46 C-68.741875 45.979375 -67.48375 45.95875 -66.1875 45.9375 C-65.12595703 45.92009766 -65.12595703 45.92009766 -64.04296875 45.90234375 C-62 46 -62 46 -59 47 C-59.7425 46.319375 -59.7425 46.319375 -60.5 45.625 C-62 44 -62 44 -62 42 C-58.6875 41.75 -58.6875 41.75 -55 42 C-53.0625 44 -53.0625 44 -52 46 C-52.33 46.66 -52.66 47.32 -53 48 C-52.40832031 47.97679687 -51.81664062 47.95359375 -51.20703125 47.9296875 C-46.66198041 47.82588536 -43.14059941 47.86291643 -39 50 C-39.99 48.35 -40.98 46.7 -42 45 C-39.69 44.67 -37.38 44.34 -35 44 C-36.051875 43.62875 -37.10375 43.2575 -38.1875 42.875 C-42.42340357 41.06206764 -44.38436454 38.76959227 -47 35 C-47.625 32.9375 -47.625 32.9375 -48 31 C-48.99414593 29.32983484 -49.9935725 27.66279327 -51 26 C-51 25.34 -51 24.68 -51 24 C-50.05125 24.33 -49.1025 24.66 -48.125 25 C-44.4197294 26.18568659 -43.67494597 26.22498199 -40 25 C-40.515625 24.236875 -41.03125 23.47375 -41.5625 22.6875 C-42.036875 21.800625 -42.51125 20.91375 -43 20 C-42.505 18.515 -42.505 18.515 -42 17 C-39.95880212 18.61594832 -37.95927063 20.2856382 -36 22 C-36 22.66 -36 23.32 -36 24 C-35.34 24 -34.68 24 -34 24 C-34 20.04 -34 16.08 -34 12 C-31.5 13.6875 -31.5 13.6875 -29 16 C-28.6875 18.75 -28.6875 18.75 -29 21 C-28.34 21 -27.68 21 -27 21 C-27 20.01 -27 19.02 -27 18 C-26.34 18 -25.68 18 -25 18 C-23.61061923 19.96147874 -22.2739589 21.96166576 -21 24 C-20.34 22.35 -19.68 20.7 -19 19 C-19.99 19.33 -20.98 19.66 -22 20 C-24.4294516 16.3558226 -24.16179575 14.28758728 -24 10 C-22.68 10 -21.36 10 -20 10 C-20.020625 9.05125 -20.04125 8.1025 -20.0625 7.125 C-20 4 -20 4 -19 2 C-18.34 2 -17.68 2 -17 2 C-16.34 4.31 -15.68 6.62 -15 9 C-14.01 9 -13.02 9 -12 9 C-10.64560332 11.70879335 -10.93498549 14.00933268 -11 17 C-10.01 17 -9.02 17 -8 17 C-7.505 17.99 -7.505 17.99 -7 19 C-6.34 16.69 -5.68 14.38 -5 12 C-6.32 11.67 -7.64 11.34 -9 11 C-9.20086443 7.28400809 -9.1519437 6.22791555 -7 3 C-6.34 3 -5.68 3 -5 3 C-4.505 4.485 -4.505 4.485 -4 6 C-3.38125 5.01 -2.7625 4.02 -2.125 3 C-1.073125 1.515 -1.073125 1.515 0 0 Z M-42 88 C-42.99 89.485 -42.99 89.485 -44 91 C-43.34 91 -42.68 91 -42 91 C-42.33 92.98 -42.66 94.96 -43 97 C-42.01 96.67 -41.02 96.34 -40 96 C-39.67 93.69 -39.34 91.38 -39 89 C-39.99 88.67 -40.98 88.34 -42 88 Z " fill="#0F1212" transform="translate(320,109)"/>
<path d="M0 0 C0 1.32 0 2.64 0 4 C0.94875 3.34 1.8975 2.68 2.875 2 C6 0 6 0 8 0 C7.67 0.94875 7.34 1.8975 7 2.875 C5.89840809 5.77062452 5.89840809 5.77062452 6 8 C6.99 8 7.98 8 9 8 C8.67 9.32 8.34 10.64 8 12 C8.763125 11.67 9.52625 11.34 10.3125 11 C13 10 13 10 16 10 C15.43628586 13.26954202 14.50037734 14.82575883 12 17 C13.32 17.66 14.64 18.32 16 19 C15.0409375 20.11375 15.0409375 20.11375 14.0625 21.25 C12.15188513 23.79748649 11.59880844 25.00595782 11 28 C10.34 28.99 9.68 29.98 9 31 C9.515625 30.67 10.03125 30.34 10.5625 30 C13.78026512 28.67989123 16.5570528 28.86757895 20 29 C19.195625 29.9075 18.39125 30.815 17.5625 31.75 C15.58857329 34.10309908 14.36122533 35.86938046 14 39 C14.94875 39.12375 15.8975 39.2475 16.875 39.375 C20 40 20 40 22 42 C18.77208445 44.1519437 17.71599191 44.20086443 14 44 C14.2475 44.928125 14.2475 44.928125 14.5 45.875 C15 48 15 48 15 50 C16.98 50.99 18.96 51.98 21 53 C20.34 53.66 19.68 54.32 19 55 C20.65 56.98 22.3 58.96 24 61 C21.03 61 18.06 61 15 61 C15.66 62.32 16.32 63.64 17 65 C13.625 65.125 13.625 65.125 10 65 C9.34 64.34 8.68 63.68 8 63 C8 62.01 8 61.02 8 60 C8.99 59.67 9.98 59.34 11 59 C10.05125 58.71125 9.1025 58.4225 8.125 58.125 C5 57 5 57 3 55 C3 54.01 3 53.02 3 52 C1.7625 52.020625 0.525 52.04125 -0.75 52.0625 C-3.6640825 52.06766681 -6.20953327 51.93015558 -9 51 C-9 52.32 -9 53.64 -9 55 C-15.26587945 54.05887977 -20.04618438 53.06466923 -25 49 C-25.33 48.34 -25.66 47.68 -26 47 C-24.515 46.505 -24.515 46.505 -23 46 C-24.32 45.67 -25.64 45.34 -27 45 C-26.67 44.401875 -26.34 43.80375 -26 43.1875 C-24.79212012 40.94613529 -24.79212012 40.94613529 -25 38 C-22.67885609 34.90514145 -19.44060517 33.60561575 -16 32 C-16.66 31.34 -17.32 30.68 -18 30 C-18.99 30.33 -19.98 30.66 -21 31 C-21 29.68 -21 28.36 -21 27 C-21.66 26.67 -22.32 26.34 -23 26 C-22.72414063 25.46890625 -22.44828125 24.9378125 -22.1640625 24.390625 C-20.78291096 21.55416613 -19.57935359 18.66580343 -18.375 15.75 C-17.92898438 14.67234375 -17.48296875 13.5946875 -17.0234375 12.484375 C-16.51683594 11.25460938 -16.51683594 11.25460938 -16 10 C-15.34 10.33 -14.68 10.66 -14 11 C-11.90178785 10.60061233 -11.90178785 10.60061233 -10 10 C-9.85884766 9.11054688 -9.85884766 9.11054688 -9.71484375 8.203125 C-8.84054781 5.50857359 -7.73279682 4.53677244 -5.5625 2.75 C-4.94503906 2.22921875 -4.32757813 1.7084375 -3.69140625 1.171875 C-2 0 -2 0 0 0 Z " fill="#181B1B" transform="translate(337,121)"/>
<path d="M0 0 C1 2 1 2 1 5 C1.66 3.35 2.32 1.7 3 0 C3.66 0 4.32 0 5 0 C5.17942163 3.94727588 5.09350689 6.5980513 3 10 C1.68 10 0.36 10 -1 10 C-1.66 10.66 -2.32 11.32 -3 12 C-1.23470405 13.21690533 -1.23470405 13.21690533 1 14 C3.23470405 13.21690533 3.23470405 13.21690533 5 12 C5 13.98 5 15.96 5 18 C5.33 17.34 5.66 16.68 6 16 C6.66 16 7.32 16 8 16 C8.99 18.31 9.98 20.62 11 23 C12.65 22.67 14.3 22.34 16 22 C17.20272819 24.40545638 17.10071472 25.94996953 17.0625 28.625 C17.05347656 29.44226563 17.04445313 30.25953125 17.03515625 31.1015625 C17.02355469 31.72804687 17.01195312 32.35453125 17 33 C16.01 33.495 16.01 33.495 15 34 C15 35.32 15 36.64 15 38 C15.61875 37.79375 16.2375 37.5875 16.875 37.375 C17.57625 37.25125 18.2775 37.1275 19 37 C21 39 21 39 21.125 42.625 C21.08375 43.73875 21.0425 44.8525 21 46 C19.68 46 18.36 46 17 46 C16.34 47.98 15.68 49.96 15 52 C11.125 48.25 11.125 48.25 10 46 C9.505 46.99 9.505 46.99 9 48 C8.34 48 7.68 48 7 48 C6.77825067 46.54364629 6.57301302 45.08477044 6.375 43.625 C6.25898438 42.81289062 6.14296875 42.00078125 6.0234375 41.1640625 C6.01183594 40.09285156 6.01183594 40.09285156 6 39 C6.66 38.34 7.32 37.68 8 37 C8.66 37 9.32 37 10 37 C10 34.69 10 32.38 10 30 C9.01 30.33 8.02 30.66 7 31 C6.71125 30.360625 6.4225 29.72125 6.125 29.0625 C5.17176549 26.84793921 5.17176549 26.84793921 3 26 C2.34 27.65 1.68 29.3 1 31 C2.32 31.33 3.64 31.66 5 32 C5.25 37.625 5.25 37.625 3 41 C2.34 41 1.68 41 1 41 C1 40.01 1 39.02 1 38 C0.34 38 -0.32 38 -1 38 C-1.144375 39.11375 -1.28875 40.2275 -1.4375 41.375 C-2 45 -2 45 -3 47 C-3.66 47 -4.32 47 -5 47 C-5.125 39.25 -5.125 39.25 -4 37 C-4.45375 37.495 -4.9075 37.99 -5.375 38.5 C-7 40 -7 40 -9 40 C-9.35233161 34.62694301 -9.35233161 34.62694301 -9 32 C-7 30 -7 30 -5 29 C-4.67 29.33 -4.34 29.66 -4 30 C-4 28.35 -4 26.7 -4 25 C-6.475 26.485 -6.475 26.485 -9 28 C-9.33 26.02 -9.66 24.04 -10 22 C-12.27157197 24.80643274 -12.27157197 24.80643274 -12 27.9375 C-12 31.01639392 -12.41555055 32.42526965 -14 35 C-12.515 34.505 -12.515 34.505 -11 34 C-11.61090226 40.47556391 -11.61090226 40.47556391 -13.4375 42.9375 C-15 44 -15 44 -17 44 C-17 43.01 -17 42.02 -17 41 C-17.78375 41.66 -18.5675 42.32 -19.375 43 C-22 45 -22 45 -24 45 C-24.20140476 41.37471432 -23.85776765 39.13498292 -22 36 C-23.65 36.66 -25.3 37.32 -27 38 C-26.01 35.03 -25.02 32.06 -24 29 C-24.99 29 -25.98 29 -27 29 C-27 28.01 -27 27.02 -27 26 C-28.670625 27.0209375 -28.670625 27.0209375 -30.375 28.0625 C-32.2734375 29.22265625 -32.2734375 29.22265625 -34 30 C-34.66 29.67 -35.32 29.34 -36 29 C-34.68 26.69 -33.36 24.38 -32 22 C-32.66 22 -33.32 22 -34 22 C-33.05358987 18.73058318 -32.58815053 17.33177722 -29.5625 15.625 C-27 15 -27 15 -24 16 C-23.34 16 -22.68 16 -22 16 C-21.2575 15.030625 -20.515 14.06125 -19.75 13.0625 C-17.65345698 10.40270661 -17.16617691 10.04389579 -13.6875 9.125 C-12.3571875 9.063125 -12.3571875 9.063125 -11 9 C-11.3878678 11.48660455 -11.70962479 12.72345219 -13.55859375 14.484375 C-14.17863281 14.90203125 -14.79867188 15.3196875 -15.4375 15.75 C-16.05496094 16.17796875 -16.67242187 16.6059375 -17.30859375 17.046875 C-19 18 -19 18 -21 18 C-21 18.99 -21 19.98 -21 21 C-20.34 21.33 -19.68 21.66 -19 22 C-19.33 22.99 -19.66 23.98 -20 25 C-19.34 25 -18.68 25 -18 25 C-17.773125 24.13375 -17.54625 23.2675 -17.3125 22.375 C-15.74110401 18.33426745 -13.97907516 16.12802891 -11 13 C-10.34 13 -9.68 13 -9 13 C-8.7525 12.113125 -8.505 11.22625 -8.25 10.3125 C-6.46169739 5.57349808 -4.20065497 2.80043665 0 0 Z M-20 26 C-20.99 27.485 -20.99 27.485 -22 29 C-21.34 29 -20.68 29 -20 29 C-20.33 30.98 -20.66 32.96 -21 35 C-20.01 34.67 -19.02 34.34 -18 34 C-17.67 31.69 -17.34 29.38 -17 27 C-17.99 26.67 -18.98 26.34 -20 26 Z " fill="#1C1E1E" transform="translate(298,171)"/>
<path d="M0 0 C1.49080078 0.02707031 1.49080078 0.02707031 3.01171875 0.0546875 C3.77097656 0.07789063 4.53023438 0.10109375 5.3125 0.125 C4.6525 0.929375 3.9925 1.73375 3.3125 2.5625 C1.20995486 4.71461915 1.20995486 4.71461915 1.3125 6.125 C2.6325 5.795 3.9525 5.465 5.3125 5.125 C5.3125 4.465 5.3125 3.805 5.3125 3.125 C8.9566774 0.6955484 11.02491272 0.96320425 15.3125 1.125 C15.6425 2.445 15.9725 3.765 16.3125 5.125 C17.735625 5.310625 17.735625 5.310625 19.1875 5.5 C22.3125 6.125 22.3125 6.125 24.3125 8.125 C21.08458445 10.2769437 20.02849191 10.32586443 16.3125 10.125 C16.56 11.053125 16.56 11.053125 16.8125 12 C17.3125 14.125 17.3125 14.125 17.3125 16.125 C19.2925 17.115 21.2725 18.105 23.3125 19.125 C22.6525 19.785 21.9925 20.445 21.3125 21.125 C23.7875 24.095 23.7875 24.095 26.3125 27.125 C23.3425 27.125 20.3725 27.125 17.3125 27.125 C17.9725 28.445 18.6325 29.765 19.3125 31.125 C15.9375 31.25 15.9375 31.25 12.3125 31.125 C11.6525 30.465 10.9925 29.805 10.3125 29.125 C10.3125 28.135 10.3125 27.145 10.3125 26.125 C11.3025 25.795 12.2925 25.465 13.3125 25.125 C12.36375 24.83625 11.415 24.5475 10.4375 24.25 C7.3125 23.125 7.3125 23.125 5.3125 21.125 C5.3125 20.135 5.3125 19.145 5.3125 18.125 C4.095625 18.16625 2.87875 18.2075 1.625 18.25 C-1.90342456 18.25 -4.53499675 17.84454723 -7.6875 16.125 C-8.0175 15.465 -8.3475 14.805 -8.6875 14.125 C-7.3675 13.135 -6.0475 12.145 -4.6875 11.125 C-6.6675 11.125 -8.6475 11.125 -10.6875 11.125 C-10.88766822 7.52197197 -10.68517079 5.17407647 -8.6875 2.125 C-5.26655758 -0.15562828 -4.00562778 -0.09425007 0 0 Z " fill="#111414" transform="translate(334.6875,154.875)"/>
<path d="M0 0 C0.66 0 1.32 0 2 0 C2.33 2.31 2.66 4.62 3 7 C3.99 6.67 4.98 6.34 6 6 C6.36923077 12.4 6.36923077 12.4 4.5 15.4375 C4.005 15.953125 3.51 16.46875 3 17 C4.65 16.34 6.3 15.68 8 15 C7.67 17.31 7.34 19.62 7 22 C6.113125 22.12375 5.22625 22.2475 4.3125 22.375 C-0.68126136 24.82476973 -1.92547589 29.02481387 -4 34 C-4.66 34 -5.32 34 -6 34 C-6 34.66 -6 35.32 -6 36 C-6.66 36 -7.32 36 -8 36 C-7.67 33.03 -7.34 30.06 -7 27 C-8.98 27 -10.96 27 -13 27 C-13.99 29.64 -14.98 32.28 -16 35 C-19.13107836 31.61416198 -19.33550778 29.28890538 -19.1875 24.75 C-19.16042969 23.67234375 -19.13335937 22.5946875 -19.10546875 21.484375 C-19.05326172 20.25460938 -19.05326172 20.25460938 -19 19 C-19.99 19.33 -20.98 19.66 -22 20 C-24.4294516 16.3558226 -24.16179575 14.28758728 -24 10 C-22.68 10 -21.36 10 -20 10 C-20.020625 9.05125 -20.04125 8.1025 -20.0625 7.125 C-20 4 -20 4 -19 2 C-18.34 2 -17.68 2 -17 2 C-16.34 4.31 -15.68 6.62 -15 9 C-14.01 9 -13.02 9 -12 9 C-10.64560332 11.70879335 -10.93498549 14.00933268 -11 17 C-10.01 17 -9.02 17 -8 17 C-7.67 17.66 -7.34 18.32 -7 19 C-6.01 15.535 -6.01 15.535 -5 12 C-6.32 11.67 -7.64 11.34 -9 11 C-9.20086443 7.28400809 -9.1519437 6.22791555 -7 3 C-6.34 3 -5.68 3 -5 3 C-4.67 3.99 -4.34 4.98 -4 6 C-3.38125 5.01 -2.7625 4.02 -2.125 3 C-1.42375 2.01 -0.7225 1.02 0 0 Z " fill="#1A1C1C" transform="translate(320,109)"/>
<path d="M0 0 C0.33 0.99 0.66 1.98 1 3 C0.67 3.66 0.34 4.32 0 5 C1.65 4.67 3.3 4.34 5 4 C5 4.66 5 5.32 5 6 C4.030625 6.45375 3.06125 6.9075 2.0625 7.375 C-1.07079582 8.65786221 -1.07079582 8.65786221 -2 11 C-0.68 11.66 0.64 12.32 2 13 C-1.96 14.98 -1.96 14.98 -6 17 C-6 17.99 -6 18.98 -6 20 C-0.31642687 17.75300597 1.79843579 14.99067362 5 10 C5.495 11.485 5.495 11.485 6 13 C7.32 13 8.64 13 10 13 C10 13.66 10 14.32 10 15 C9.05125 15.268125 8.1025 15.53625 7.125 15.8125 C3.74732727 16.74986588 3.74732727 16.74986588 2 20 C3.45880109 19.85892253 4.91703551 19.71197585 6.375 19.5625 C7.18710937 19.48128906 7.99921875 19.40007812 8.8359375 19.31640625 C11.04272805 19.10909886 11.04272805 19.10909886 13 18 C15.3329866 17.95977609 17.66706666 17.95679753 20 18 C18.09570312 20.24609375 18.09570312 20.24609375 16.19140625 22.4921875 C14.9121848 24.00594079 14.9121848 24.00594079 14 26 C13.67 25.67 13.34 25.34 13 25 C9.33655389 24.86431681 6.49384279 24.83538574 3 26 C3.33 26.99 3.66 27.98 4 29 C2.02 29.33 0.04 29.66 -2 30 C-0.25 25.125 -0.25 25.125 2 24 C0.39620659 23.94583812 -1.20811406 23.90713362 -2.8125 23.875 C-3.70582031 23.85179687 -4.59914063 23.82859375 -5.51953125 23.8046875 C-8.25402714 23.81714173 -8.25402714 23.81714173 -11 26 C-11 26.99 -11 27.98 -11 29 C-11.66 29 -12.32 29 -13 29 C-12.67 30.32 -12.34 31.64 -12 33 C-10.576875 32.9071875 -10.576875 32.9071875 -9.125 32.8125 C-8.09375 32.874375 -7.0625 32.93625 -6 33 C-5.34 33.99 -4.68 34.98 -4 36 C-5.98 36.66 -7.96 37.32 -10 38 C-9.505 38.495 -9.505 38.495 -9 39 C-8.95936168 40.66617115 -8.957279 42.33388095 -9 44 C-15.26587945 43.05887977 -20.04618438 42.06466923 -25 38 C-25.33 37.34 -25.66 36.68 -26 36 C-24.515 35.505 -24.515 35.505 -23 35 C-24.32 34.67 -25.64 34.34 -27 34 C-26.67 33.401875 -26.34 32.80375 -26 32.1875 C-24.79212012 29.94613529 -24.79212012 29.94613529 -25 27 C-23.21653082 24.58707111 -20.9527507 23.3666431 -18.375 21.9375 C-14.96685641 20.39458084 -14.96685641 20.39458084 -14 18 C-13.2575 17.608125 -12.515 17.21625 -11.75 16.8125 C-8.0865027 14.39792224 -6.41086709 11.65074159 -4 8 C-4.66 7.67 -5.32 7.34 -6 7 C-4.02 4.69 -2.04 2.38 0 0 Z " fill="#232424" transform="translate(337,132)"/>
<path d="M0 0 C2.5 1.6875 2.5 1.6875 5 4 C5.3125 6.75 5.3125 6.75 5 9 C5.66 9 6.32 9 7 9 C7 8.01 7 7.02 7 6 C7.66 6 8.32 6 9 6 C10.38938077 7.96147874 11.7260411 9.96166576 13 12 C13.66 11.67 14.32 11.34 15 11 C15.66 14.3 16.32 17.6 17 21 C18.98 20.34 20.96 19.68 23 19 C24.54076187 20.54076187 24.24356699 21.9844485 24.3125 24.125 C24.28845897 29.13354803 22.78710228 31.90644353 20 36 C19.01 36 18.02 36 17 36 C17 36.66 17 37.32 17 38 C12.82746369 38.14835685 9.31654796 38.18380959 6.1015625 35.29296875 C3.57537398 31.97195506 1.81588821 29.12579831 1 25 C3.31 25.33 5.62 25.66 8 26 C7.89394313 20.90927016 7.1040026 18.8277969 3.4375 15.25 C0.15780011 11.84982134 -0.47380306 9.71939724 -0.4375 5 C-0.32636193 3.33066077 -0.19246583 1.66192721 0 0 Z " fill="#171919" transform="translate(286,121)"/>
<path d="M0 0 C3.57104439 1.87949705 5.54744301 3.17053157 7 7 C7.99 6.67 8.98 6.34 10 6 C16.67982063 12.56053812 16.67982063 12.56053812 17.46484375 16.08984375 C17.4375 18 17.4375 18 17 21 C16.319375 20.319375 15.63875 19.63875 14.9375 18.9375 C12.05366249 16.6110158 12.05366249 16.6110158 8.1875 17.25 C7.135625 17.4975 6.08375 17.745 5 18 C5 18.99 5 19.98 5 21 C5.99 21.33 6.98 21.66 8 22 C8.6875 24.0625 8.6875 24.0625 9 26 C5.61111395 26.38730126 4.26204576 26.17469717 1.375 24.25 C-2.10227145 20.95574284 -3.88127382 18.61474551 -5 14 C-5.99414593 12.32983484 -6.9935725 10.66279327 -8 9 C-8 8.34 -8 7.68 -8 7 C-6.576875 7.495 -6.576875 7.495 -5.125 8 C-1.4197294 9.18568659 -0.67494597 9.22498199 3 8 C2.505 7.236875 2.01 6.47375 1.5 5.6875 C0 3 0 3 0 0 Z " fill="#131717" transform="translate(277,126)"/>
<path d="M0 0 C0.639375 0.66 1.27875 1.32 1.9375 2 C3.64082319 4.11602431 3.64082319 4.11602431 5 4 C5 3.34 5 2.68 5 2 C16.5653897 2.85336856 16.5653897 2.85336856 20 5 C21.3125 7.625 21.3125 7.625 22 10 C21.01 10 20.02 10 19 10 C19.495 10.94875 19.99 11.8975 20.5 12.875 C22 16 22 16 22 18 C19.36 17.34 16.72 16.68 14 16 C14 16.99 14 17.98 14 19 C11.08482708 17.92598892 9.22189824 17.22189824 7 15 C7 14.01 7 13.02 7 12 C6.34 12 5.68 12 5 12 C5 13.65 5 15.3 5 17 C2.37098712 15.47793991 0.15634036 14.15634036 -2 12 C-2 10.68 -2 9.36 -2 8 C-0.35 8.33 1.3 8.66 3 9 C3 8.34 3 7.68 3 7 C1.7934375 6.566875 1.7934375 6.566875 0.5625 6.125 C-2 5 -2 5 -3 3 C-2.01 3 -1.02 3 0 3 C0 2.01 0 1.02 0 0 Z " fill="#1C1D1D" transform="translate(326,187)"/>
<path d="M0 0 C3.3125 -0.25 3.3125 -0.25 7 0 C8.9375 2 8.9375 2 10 4 C9.67 4.66 9.34 5.32 9 6 C9.56847656 5.95359375 10.13695312 5.9071875 10.72265625 5.859375 C16.7741545 5.57650029 19.99759562 6.59410766 25 10 C21.77208445 12.1519437 20.71599191 12.20086443 17 12 C16.67 13.98 16.34 15.96 16 18 C9.375 18.125 9.375 18.125 6 17 C6.33 16.01 6.66 15.02 7 14 C5.88625 13.855625 4.7725 13.71125 3.625 13.5625 C0 13 0 13 -2 12 C-2 11.34 -2 10.68 -2 10 C-1.34 10 -0.68 10 0 10 C0 9.34 0 8.68 0 8 C-1.423125 7.8453125 -1.423125 7.8453125 -2.875 7.6875 C-6 7 -6 7 -8 4 C-6.741875 3.979375 -5.48375 3.95875 -4.1875 3.9375 C-3.47980469 3.92589844 -2.77210938 3.91429687 -2.04296875 3.90234375 C0 4 0 4 3 5 C2.505 4.54625 2.01 4.0925 1.5 3.625 C0 2 0 2 0 0 Z " fill="#181B1B" transform="translate(258,151)"/>
<path d="M0 0 C0.66 0 1.32 0 2 0 C2.66 2.31 3.32 4.62 4 7 C4.99 7 5.98 7 7 7 C8.35439668 9.70879335 8.06501451 12.00933268 8 15 C8.99 15 9.98 15 11 15 C11 18.3 11 21.6 11 25 C9.35 25 7.7 25 6 25 C5.01 27.64 4.02 30.28 3 33 C-0.13107836 29.61416198 -0.33550778 27.28890538 -0.1875 22.75 C-0.16042969 21.67234375 -0.13335937 20.5946875 -0.10546875 19.484375 C-0.05326172 18.25460938 -0.05326172 18.25460938 0 17 C-0.99 17.33 -1.98 17.66 -3 18 C-5.4294516 14.3558226 -5.16179575 12.28758728 -5 8 C-3.68 8 -2.36 8 -1 8 C-1.020625 7.05125 -1.04125 6.1025 -1.0625 5.125 C-1 2 -1 2 0 0 Z " fill="#1D1F1F" transform="translate(301,111)"/>
<path d="M0 0 C0.66 1.32 1.32 2.64 2 4 C3.65 3.67 5.3 3.34 7 3 C8.20272819 5.40545638 8.10071472 6.94996953 8.0625 9.625 C8.05347656 10.44226563 8.04445313 11.25953125 8.03515625 12.1015625 C8.02355469 12.72804687 8.01195312 13.35453125 8 14 C7.01 14.495 7.01 14.495 6 15 C6 16.32 6 17.64 6 19 C6.61875 18.79375 7.2375 18.5875 7.875 18.375 C8.57625 18.25125 9.2775 18.1275 10 18 C12 20 12 20 12.125 23.625 C12.08375 24.73875 12.0425 25.8525 12 27 C10.68 27 9.36 27 8 27 C7.34 28.98 6.68 30.96 6 33 C2.125 29.25 2.125 29.25 1 27 C0.67 27.66 0.34 28.32 0 29 C-0.66 29 -1.32 29 -2 29 C-2.22174933 27.54364629 -2.42698698 26.08477044 -2.625 24.625 C-2.74101562 23.81289062 -2.85703125 23.00078125 -2.9765625 22.1640625 C-2.98429687 21.44992188 -2.99203125 20.73578125 -3 20 C-2.34 19.34 -1.68 18.68 -1 18 C-0.34 18 0.32 18 1 18 C1 15.69 1 13.38 1 11 C0.34 11 -0.32 11 -1 11 C-0.67 7.37 -0.34 3.74 0 0 Z " fill="#1B1D1D" transform="translate(307,190)"/>
<path d="M0 0 C-0.33 1.32 -0.66 2.64 -1 4 C-0.236875 3.67 0.52625 3.34 1.3125 3 C4 2 4 2 7 2 C6.43628586 5.26954202 5.50037734 6.82575883 3 9 C4.32 9.66 5.64 10.32 7 11 C6.360625 11.7425 5.72125 12.485 5.0625 13.25 C2.91291734 15.7333839 2.91291734 15.7333839 2.5 18.125 C2 20 2 20 0.25 21.75 C-2.37943983 23.21079991 -4.0374441 23.24687966 -7 23 C-5.125 19.125 -5.125 19.125 -4 18 C-2.33382885 17.95936168 -0.66611905 17.957279 1 18 C1 17.34 1 16.68 1 16 C-0.32 16 -1.64 16 -3 16 C-3.33 15.34 -3.66 14.68 -4 14 C-4.86625 15.3921875 -4.86625 15.3921875 -5.75 16.8125 C-7.72965881 19.61701664 -9.07224796 21.30001494 -12 23 C-12.99 23 -13.98 23 -15 23 C-15.33 22.01 -15.66 21.02 -16 20 C-13.32521756 18.3372974 -11.0004856 17.00016187 -8 16 C-9.32 15.34 -10.64 14.68 -12 14 C-9.6875 11.5 -9.6875 11.5 -7 9 C-6.01 9 -5.02 9 -4 9 C-4 8.34 -4 7.68 -4 7 C-5.65 7.33 -7.3 7.66 -9 8 C-7.38794515 3.02949753 -5.53380518 0 0 0 Z " fill="#1D1E1E" transform="translate(346,129)"/>
<path d="M0 0 C-0.3878678 2.48660455 -0.70962479 3.72345219 -2.55859375 5.484375 C-3.17863281 5.90203125 -3.79867188 6.3196875 -4.4375 6.75 C-5.05496094 7.17796875 -5.67242187 7.6059375 -6.30859375 8.046875 C-8 9 -8 9 -10 9 C-10 9.99 -10 10.98 -10 12 C-9.34 12.33 -8.68 12.66 -8 13 C-9.24976756 16.65316671 -9.67098753 17.78065836 -13 20 C-13.99 20 -14.98 20 -16 20 C-16 19.01 -16 18.02 -16 17 C-17.670625 18.0209375 -17.670625 18.0209375 -19.375 19.0625 C-21.2734375 20.22265625 -21.2734375 20.22265625 -23 21 C-23.66 20.67 -24.32 20.34 -25 20 C-23.68 17.69 -22.36 15.38 -21 13 C-21.66 13 -22.32 13 -23 13 C-22.05358987 9.73058318 -21.58815053 8.33177722 -18.5625 6.625 C-16 6 -16 6 -13 7 C-12.34 7 -11.68 7 -11 7 C-9.31267723 5.01739574 -7.64633943 3.0167658 -6 1 C-4 0 -4 0 0 0 Z " fill="#050A0A" transform="translate(287,180)"/>
<path d="M0 0 C0.9075 0.226875 1.815 0.45375 2.75 0.6875 C2.09 2.3375 1.43 3.9875 0.75 5.6875 C1.41 5.3575 2.07 5.0275 2.75 4.6875 C5.75 4.5 5.75 4.5 8.75 4.6875 C9.41 5.3475 10.07 6.0075 10.75 6.6875 C8.75 8.6875 8.75 8.6875 5.125 8.8125 C4.01125 8.77125 2.8975 8.73 1.75 8.6875 C3.07 9.6775 4.39 10.6675 5.75 11.6875 C4.75 13.1875 4.75 13.1875 2.75 14.6875 C0.03153765 14.96095479 -2.50677199 14.82241285 -5.25 14.6875 C-4.92 13.3675 -4.59 12.0475 -4.25 10.6875 C-6.56 10.3575 -8.87 10.0275 -11.25 9.6875 C-9.5 7.6875 -9.5 7.6875 -7.25 5.6875 C-5.93 5.6875 -4.61 5.6875 -3.25 5.6875 C-3.25 5.0275 -3.25 4.3675 -3.25 3.6875 C-4.57 3.3575 -5.89 3.0275 -7.25 2.6875 C-4.61280971 0.1517401 -3.74095095 -0.35970682 0 0 Z " fill="#131616" transform="translate(256.25,165.3125)"/>
<path d="M0 0 C3.16115776 1.36983503 3.9927092 1.9890638 6 5 C6.66 5 7.32 5 8 5 C8.33 7.64 8.66 10.28 9 13 C7.68 13.33 6.36 13.66 5 14 C5.061875 15.258125 5.12375 16.51625 5.1875 17.8125 C5.1875 21.74107143 5.1875 21.74107143 3.6875 23.8125 C3.130625 24.204375 2.57375 24.59625 2 25 C1.443125 25.556875 0.88625 26.11375 0.3125 26.6875 C-0.3371875 27.3371875 -0.3371875 27.3371875 -1 28 C-5.125 19.75 -5.125 19.75 -3 13 C-2.34 13 -1.68 13 -1 13 C-1 13.99 -1 14.98 -1 16 C0.62493901 14.87890434 0.62493901 14.87890434 2 13 C2.25048636 9.87450983 2.25048636 9.87450983 2 7 C0.68 7 -0.64 7 -2 7 C-1.34 4.69 -0.68 2.38 0 0 Z " fill="#171A1A" transform="translate(300,196)"/>
<path d="M0 0 C2.5 1.6875 2.5 1.6875 5 4 C5.3125 6.75 5.3125 6.75 5 9 C5.66 9 6.32 9 7 9 C7 8.01 7 7.02 7 6 C7.66 6 8.32 6 9 6 C10.38938077 7.96147874 11.7260411 9.96166576 13 12 C13.66 11.67 14.32 11.34 15 11 C15.33 13.97 15.66 16.94 16 20 C14.68 19.67 13.36 19.34 12 19 C11.67 18.34 11.34 17.68 11 17 C10.67 18.65 10.34 20.3 10 22 C0.44377358 13.17886792 0.44377358 13.17886792 -0.3828125 7.2578125 C-0.37587766 4.80981417 -0.26913944 2.4322231 0 0 Z " fill="#141717" transform="translate(286,121)"/>
<path d="M0 0 C1 2 1 2 1 5 C1.66 3.35 2.32 1.7 3 0 C3.66 0 4.32 0 5 0 C5.17942163 3.94727588 5.09350689 6.5980513 3 10 C1.68 10 0.36 10 -1 10 C-1.66 10.66 -2.32 11.32 -3 12 C-2.67 12.33 -2.34 12.66 -2 13 C-1.95907063 15.33297433 -1.95758277 17.66705225 -2 20 C-2.33 20 -2.66 20 -3 20 C-3.33 18.35 -3.66 16.7 -4 15 C-5.74271938 17.297221 -7.39911152 19.59866729 -9 22 C-9.12375 21.071875 -9.12375 21.071875 -9.25 20.125 C-9.81258459 17.81562433 -9.81258459 17.81562433 -12.0625 16.75 C-12.701875 16.5025 -13.34125 16.255 -14 16 C-12.625 14.5 -12.625 14.5 -11 13 C-10.34 13 -9.68 13 -9 13 C-8.7525 12.113125 -8.505 11.22625 -8.25 10.3125 C-6.46169739 5.57349808 -4.20065497 2.80043665 0 0 Z " fill="#161919" transform="translate(298,171)"/>
<path d="M0 0 C-0.33 0.99 -0.66 1.98 -1 3 C-4.0625 4.1875 -4.0625 4.1875 -7 5 C-7 5.66 -7 6.32 -7 7 C-4.36 7 -1.72 7 1 7 C-0.25839515 10.77518545 -1.55903808 11.19759138 -5 13 C-8.47325181 14.1577506 -11.36067448 14.06866652 -15 14 C-14.34 12.02 -13.68 10.04 -13 8 C-14.65 7.67 -16.3 7.34 -18 7 C-17.67 6.01 -17.34 5.02 -17 4 C-14.36 4 -11.72 4 -9 4 C-9 3.01 -9 2.02 -9 1 C-6.04335481 -0.4783226 -3.25770263 -0.06032783 0 0 Z " fill="#101414" transform="translate(274,169)"/>
<path d="M0 0 C3.57104439 1.87949705 5.54744301 3.17053157 7 7 C7.99 6.67 8.98 6.34 10 6 C16.67982063 12.56053812 16.67982063 12.56053812 17.46484375 16.08984375 C17.4375 18 17.4375 18 17 21 C16.278125 20.34 15.55625 19.68 14.8125 19 C11.78402067 16.8464147 10.60296594 16.58823246 7 17 C7.33 16.34 7.66 15.68 8 15 C7.38125 14.38125 6.7625 13.7625 6.125 13.125 C4.75 11.75 3.375 10.375 2 9 C2 8.34 2 7.68 2 7 C1.67 6.360625 1.34 5.72125 1 5.0625 C0 3 0 3 0 0 Z " fill="#1A1D1D" transform="translate(277,126)"/>
<path d="M0 0 C0.33 1.32 0.66 2.64 1 4 C2.423125 4.185625 2.423125 4.185625 3.875 4.375 C7 5 7 5 9 7 C5.77208445 9.1519437 4.71599191 9.20086443 1 9 C1 9.66 1 10.32 1 11 C-1.64 10.67 -4.28 10.34 -7 10 C-6.67 8.68 -6.34 7.36 -6 6 C-7.65 6 -9.3 6 -11 6 C-10.6875 4.125 -10.6875 4.125 -10 2 C-6.3558226 -0.4294516 -4.28758728 -0.16179575 0 0 Z " fill="#181A1A" transform="translate(350,156)"/>
<path d="M0 0 C3.5 1.375 3.5 1.375 4.9375 4 C5.2159375 5.175625 5.2159375 5.175625 5.5 6.375 C4.51 6.375 3.52 6.375 2.5 6.375 C2.995 7.32375 3.49 8.2725 4 9.25 C5.5 12.375 5.5 12.375 5.5 14.375 C4.04052295 14.31493922 2.58220728 14.2261311 1.125 14.125 C-0.09316406 14.05539063 -0.09316406 14.05539063 -1.3359375 13.984375 C-3.5 13.375 -3.5 13.375 -4.7890625 11.515625 C-5.5 9.375 -5.5 9.375 -5.5 6.375 C-4.84 6.375 -4.18 6.375 -3.5 6.375 C-4.16 4.395 -4.82 2.415 -5.5 0.375 C-3.5 -0.625 -3.5 -0.625 0 0 Z " fill="#141616" transform="translate(342.5,190.625)"/>
<path d="M0 0 C-1.31707429 4.60976 -3.07495169 8.18857342 -6 12 C-6.99 12.33 -7.98 12.66 -9 13 C-9.680625 13.680625 -10.36125 14.36125 -11.0625 15.0625 C-12.0215625 16.0215625 -12.0215625 16.0215625 -13 17 C-13.66 17 -14.32 17 -15 17 C-14.67 15.02 -14.34 13.04 -14 11 C-13.34 11 -12.68 11 -12 11 C-12 9.68 -12 8.36 -12 7 C-11.34 7 -10.68 7 -10 7 C-9.67 6.01 -9.34 5.02 -9 4 C-6.33916031 2.00603743 -3.38757675 0 0 0 Z " fill="#131616" transform="translate(345,121)"/>
<path d="M0 0 C1.11375 0.556875 1.11375 0.556875 2.25 1.125 C4.94283647 2.29515863 4.94283647 2.29515863 7.3125 1.125 C7.869375 0.75375 8.42625 0.3825 9 0 C8.38909774 6.47556391 8.38909774 6.47556391 6.5625 8.9375 C5 10 5 10 3 10 C3 9.01 3 8.02 3 7 C2.21625 7.66 1.4325 8.32 0.625 9 C-2 11 -2 11 -4 11 C-4.56638908 6.18569279 -2.82561627 3.79692186 0 0 Z " fill="#151818" transform="translate(278,205)"/>
<path d="M0 0 C0.66 0.33 1.32 0.66 2 1 C1.70738281 1.57878906 1.41476562 2.15757812 1.11328125 2.75390625 C0.42269727 4.14718972 -0.25020386 5.54957442 -0.89453125 6.96484375 C-3.02097495 11.53443553 -5.36236175 14.4533027 -9 18 C-10.47844804 20.27747983 -11.72739569 22.59619186 -13 25 C-13.66 25 -14.32 25 -15 25 C-15.33 22.69 -15.66 20.38 -16 18 C-15.37351562 17.61328125 -14.74703125 17.2265625 -14.1015625 16.828125 C-13.28429687 16.30734375 -12.46703125 15.7865625 -11.625 15.25 C-10.81289063 14.73953125 -10.00078125 14.2290625 -9.1640625 13.703125 C-6.91444321 11.9326665 -6.04093152 10.63092581 -5 8 C-5.66 7.67 -6.32 7.34 -7 7 C-2.25 1.125 -2.25 1.125 0 0 Z " fill="#0B0F0F" transform="translate(293,171)"/>
<path d="M0 0 C-0.66 2.31 -1.32 4.62 -2 7 C-2.66 7 -3.32 7 -4 7 C-4 8.32 -4 9.64 -4 11 C-4.66 11 -5.32 11 -6 11 C-6.33 13.31 -6.66 15.62 -7 18 C-7.99 17.67 -8.98 17.34 -10 17 C-9.67 15.35 -9.34 13.7 -9 12 C-9.99 12.33 -10.98 12.66 -12 13 C-12 12.01 -12 11.02 -12 10 C-11.34 10 -10.68 10 -10 10 C-9.90589844 9.40703125 -9.81179688 8.8140625 -9.71484375 8.203125 C-8.84054781 5.50857359 -7.73279682 4.53677244 -5.5625 2.75 C-4.94503906 2.22921875 -4.32757813 1.7084375 -3.69140625 1.171875 C-2 0 -2 0 0 0 Z " fill="#1A1C1C" transform="translate(337,121)"/>
<path d="M0 0 C0.66 1.32 1.32 2.64 2 4 C3.65 3.67 5.3 3.34 7 3 C8.20272819 5.40545638 8.10071472 6.94996953 8.0625 9.625 C8.05347656 10.44226563 8.04445313 11.25953125 8.03515625 12.1015625 C8.02355469 12.72804687 8.01195312 13.35453125 8 14 C4.47930015 13.41321669 2.28700157 12.64350079 -1 11 C-0.67 7.37 -0.34 3.74 0 0 Z " fill="#202121" transform="translate(307,190)"/>
<path d="M0 0 C3.16115776 1.36983503 3.9927092 1.9890638 6 5 C6.66 5 7.32 5 8 5 C8.33 7.64 8.66 10.28 9 13 C7.02 13 5.04 13 3 13 C2.67 11.02 2.34 9.04 2 7 C0.68 7 -0.64 7 -2 7 C-1.34 4.69 -0.68 2.38 0 0 Z " fill="#0D1111" transform="translate(300,196)"/>
<path d="M0 0 C-8.61929658 7.27851711 -8.61929658 7.27851711 -16 7 C-14.98058136 4.27964127 -14.30907756 3.17930806 -11.7578125 1.69921875 C-10.45457031 1.19841797 -10.45457031 1.19841797 -9.125 0.6875 C-8.26132812 0.34074219 -7.39765625 -0.00601563 -6.5078125 -0.36328125 C-3.8579395 -1.03606832 -2.5378362 -0.91480142 0 0 Z " fill="#DAC9C9" transform="translate(327,154)"/>
<path d="M0 0 C0 0.66 0 1.32 0 2 C-3.14590528 3.8466683 -5.43150052 4.24774283 -9.0625 4.1875 C-9.91972656 4.18105469 -10.77695312 4.17460937 -11.66015625 4.16796875 C-14 4 -14 4 -17 3 C-17 2.34 -17 1.68 -17 1 C-10.91748904 -0.70366626 -6.22895086 -1.13253652 0 0 Z " fill="#D4C3C3" transform="translate(295,164)"/>
<path d="M0 0 C1 2 1 2 0.375 4.8125 C-1.67663685 9.56856725 -4.74562988 12.16375325 -9 15 C-8.43339332 9.05062987 -6.37172196 4.97643497 -1.75 1.125 C-1.1725 0.75375 -0.595 0.3825 0 0 Z " fill="#D7C6C6" transform="translate(298,171)"/>
<path d="M0 0 C6.59229145 -0.7013076 10.49376557 1.50397814 16 5 C16 5.66 16 6.32 16 7 C9.82235592 6.72543804 5.82210753 5.97823872 1 2 C0.67 1.34 0.34 0.68 0 0 Z " fill="#E2D0D0" transform="translate(311,168)"/>
<path d="M0 0 C-5.58268283 5.88444947 -5.58268283 5.88444947 -10.04296875 6.09765625 C-10.75066406 6.08605469 -11.45835937 6.07445312 -12.1875 6.0625 C-14.0746875 6.0315625 -14.0746875 6.0315625 -16 6 C-16 5.34 -16 4.68 -16 4 C-10.4174808 0.67424388 -6.50313209 -0.46450943 0 0 Z " fill="#D3C3C3" transform="translate(283,170)"/>
<path d="M0 0 C0.66 0.33 1.32 0.66 2 1 C2.68829114 9.60363924 2.68829114 9.60363924 0.125 13.5625 C-0.57625 14.366875 -1.2775 15.17125 -2 16 C-2.66 16 -3.32 16 -4 16 C-3.71767279 13.89455987 -3.4238102 11.79066411 -3.125 9.6875 C-2.96257812 8.51574219 -2.80015625 7.34398437 -2.6328125 6.13671875 C-2 3 -2 3 0 0 Z " fill="#D0C0C0" transform="translate(308,140)"/>
<path d="M0 0 C6.2892432 1.60887617 9.44674491 4.67011737 13 10 C8.64475397 9.49357604 5.4516183 8.78047029 2 6 C0.6875 2.8125 0.6875 2.8125 0 0 Z " fill="#D7C6C6" transform="translate(322,177)"/>
<path d="M0 0 C3 1.5 3 1.5 5 3 C4.67 3.66 4.34 4.32 4 5 C-4.78723404 5.29787234 -4.78723404 5.29787234 -9 3 C-9.33 2.34 -9.66 1.68 -10 1 C-6.81558048 -0.59220976 -3.4662845 -0.3976617 0 0 Z " fill="#D3C3C3" transform="translate(336,168)"/>
<path d="M0 0 C5.75 4.625 5.75 4.625 8 8 C8.07905064 10.33199388 8.08798769 12.66832622 8 15 C3.12940147 11.84069284 1.38231181 8.4730557 0 3 C0 2.01 0 1.02 0 0 Z " fill="#D7C6C6" transform="translate(286,132)"/>
<path d="M0 0 C-0.34485543 2.8842454 -0.78255407 3.8207818 -3.06640625 5.703125 C-3.89011719 6.21359375 -4.71382813 6.7240625 -5.5625 7.25 C-6.38878906 7.77078125 -7.21507812 8.2915625 -8.06640625 8.828125 C-9.02353516 9.40820312 -9.02353516 9.40820312 -10 10 C-10.66 9.67 -11.32 9.34 -12 9 C-6.4 0 -6.4 0 0 0 Z " fill="#DBCACA" transform="translate(287,180)"/>
<path d="M0 0 C-1.39597071 4.441725 -3.43507124 7.01540848 -7 10 C-9.8125 10.8125 -9.8125 10.8125 -12 11 C-11.39822547 7.76546193 -10.74634589 5.61194038 -8.15625 3.48828125 C-2.63896848 0 -2.63896848 0 0 0 Z " fill="#DAC9C9" transform="translate(333,140)"/>
<path d="M0 0 C4.79027826 0.58063979 8.04307058 2.33668212 12 5 C12.9375 7.25 12.9375 7.25 13 9 C9.65143565 9.38269307 8.25475723 9.16377251 5.375 7.3125 C3.02381043 5.02318384 1.52552201 2.89046276 0 0 Z " fill="#DAC9C9" transform="translate(273,143)"/>
<path d="M0 0 C0.33 0 0.66 0 1 0 C1.29162929 4.95769796 1.12940055 8.02806853 -2 12 C-2.66 12 -3.32 12 -4 12 C-4 12.66 -4 13.32 -4 14 C-4.66 14 -5.32 14 -6 14 C-5.5414571 8.26821381 -4.14522 4.14522 0 0 Z " fill="#D9C8C8" transform="translate(318,131)"/>
<path d="M0 0 C3.66281882 1.68291675 4.89794302 2.80644365 6.8125 6.4375 C8 10 8 10 8 14 C7.34 14 6.68 14 6 14 C4.4921875 12.20703125 4.4921875 12.20703125 2.875 9.8125 C2.33617187 9.03519531 1.79734375 8.25789062 1.2421875 7.45703125 C-0.13704931 4.72891819 -0.24624707 3.01385001 0 0 Z " fill="#DFCDCD" transform="translate(314,184)"/>
<path d="M0 0 C1.49080078 0.02707031 1.49080078 0.02707031 3.01171875 0.0546875 C3.77097656 0.07789063 4.53023438 0.10109375 5.3125 0.125 C2.76593722 2.94440879 1.1404488 4.68752014 -2.6875 5.125 C-5.02050933 5.16388349 -7.35459801 5.1698635 -9.6875 5.125 C-7.93798051 -0.12355846 -4.97877546 -0.11714766 0 0 Z " fill="#D9C8C8" transform="translate(334.6875,154.875)"/>
<path d="M0 0 C9.99562363 -0.63019694 9.99562363 -0.63019694 14.1875 2 C15.0846875 2.99 15.0846875 2.99 16 4 C9.96498194 5.38302497 6.62718496 4.61955162 1 2 C0.67 1.34 0.34 0.68 0 0 Z " fill="#E0CECE" transform="translate(267,158)"/>
<path d="M0 0 C2.32042696 1.80613708 2.9533659 2.66252959 3.36328125 5.62890625 C3.34652344 6.59699219 3.32976562 7.56507813 3.3125 8.5625 C3.30863281 9.53316406 3.30476563 10.50382813 3.30078125 11.50390625 C3 14 3 14 1 16 C-0.72327319 13.0098145 -1.25156728 10.87966022 -1.1875 7.4375 C-1.18105469 6.67308594 -1.17460937 5.90867188 -1.16796875 5.12109375 C-1 3 -1 3 0 0 Z " fill="#E0CFCF" transform="translate(302,128)"/>
<path d="M0 0 C0.33 0.99 0.66 1.98 1 3 C2.32 3 3.64 3 5 3 C5 3.66 5 4.32 5 5 C4.05125 5.268125 3.1025 5.53625 2.125 5.8125 C-1.25267273 6.74986588 -1.25267273 6.74986588 -3 10 C-2.34 10 -1.68 10 -1 10 C-1 10.66 -1 11.32 -1 12 C-3.31 12 -5.62 12 -8 12 C-7.05208333 10.578125 -6.10416667 9.15625 -5.15625 7.734375 C-4.7746875 7.16203125 -4.393125 6.5896875 -4 6 C-2 3 -2 3 0 0 Z " fill="#030707" transform="translate(342,142)"/>
<path d="M0 0 C0.66 0 1.32 0 2 0 C3.23184766 2.46369532 3.16732342 4.1894501 3.1875 6.9375 C3.20167969 7.81277344 3.21585937 8.68804687 3.23046875 9.58984375 C3 12 3 12 1 15 C-1.61437258 11.07844114 -1.21703011 7.55763232 -1 3 C-0.67 2.01 -0.34 1.02 0 0 Z " fill="#E5D3D3" transform="translate(304,187)"/>
<path d="M0 0 C0.4560284 5.70035501 -0.39587248 8.54784247 -4 13 C-4.99 13.495 -4.99 13.495 -6 14 C-5.38997821 0 -5.38997821 0 0 0 Z " fill="#E6D4D4" transform="translate(295,185)"/>
<path d="M0 0 C1.134375 0.020625 2.26875 0.04125 3.4375 0.0625 C3.7675 0.7225 4.0975 1.3825 4.4375 2.0625 C3.7775 2.0625 3.1175 2.0625 2.4375 2.0625 C2.4375 2.7225 2.4375 3.3825 2.4375 4.0625 C3.4275 4.0625 4.4175 4.0625 5.4375 4.0625 C5.4375 4.7225 5.4375 5.3825 5.4375 6.0625 C1.8075 6.7225 -1.8225 7.3825 -5.5625 8.0625 C-4.5625 6.0625 -3.5625 4.0625 -2.5625 2.0625 C-3.2225 1.7325 -3.8825 1.4025 -4.5625 1.0625 C-3.5625 0.0625 -3.5625 0.0625 0 0 Z " fill="#0C1010" transform="translate(261.5625,163.9375)"/>
<path d="M0 0 C4.38249366 1.33909529 6.57949251 3.08994944 9 7 C8.75 9.3125 8.75 9.3125 8 11 C4.71573897 9.94434467 3.42848444 8.38339648 1.75 5.5 C0 2 0 2 0 0 Z " fill="#DCCBCB" transform="translate(287,146)"/>
<path d="M0 0 C0.66 0.99 1.32 1.98 2 3 C3.32 3 4.64 3 6 3 C5.34 6.3 4.68 9.6 4 13 C3.34 11.68 2.68 10.36 2 9 C1.01 9 0.02 9 -1 9 C-1.33 6.36 -1.66 3.72 -2 1 C-1.34 0.67 -0.68 0.34 0 0 Z " fill="#141717" transform="translate(310,117)"/>
<path d="M0 0 C0.33 0.99 0.66 1.98 1 3 C0.67 3.66 0.34 4.32 0 5 C1.65 4.67 3.3 4.34 5 4 C5 4.66 5 5.32 5 6 C4.05125 6.45375 3.1025 6.9075 2.125 7.375 C-1.00313679 8.80238254 -1.00313679 8.80238254 -3 11 C-3.33 10.01 -3.66 9.02 -4 8 C-4.66 7.67 -5.32 7.34 -6 7 C-4.02 4.69 -2.04 2.38 0 0 Z " fill="#080C0C" transform="translate(337,132)"/>
<path d="M0 0 C0.66 0.33 1.32 0.66 2 1 C2 4.3 2 7.6 2 11 C1.34 11 0.68 11 0 11 C-2.03435531 7.27034861 -3 5.33094958 -3 1 C-2.01 0.67 -1.02 0.34 0 0 Z " fill="#E2D0D0" transform="translate(309,178)"/>
<path d="M0 0 C0 1.65 0 3.3 0 5 C-6.625 5.125 -6.625 5.125 -10 4 C-10 3.34 -10 2.68 -10 2 C-6.49223216 0.39644899 -3.85645121 -0.22036864 0 0 Z " fill="#CDBDBD" transform="translate(274,164)"/>
<path d="M0 0 C3.78786597 0.5260925 6.17152224 1.38103911 9 4 C9 4.66 9 5.32 9 6 C6.03 5.67 3.06 5.34 0 5 C-0.33 4.01 -0.66 3.02 -1 2 C-0.67 1.34 -0.34 0.68 0 0 Z " fill="#CDBDBD" transform="translate(332,175)"/>
<path d="M0 0 C1.65 0 3.3 0 5 0 C5 0.66 5 1.32 5 2 C4.34 2 3.68 2 3 2 C3 2.66 3 3.32 3 4 C3.99 4.33 4.98 4.66 6 5 C5.67 5.66 5.34 6.32 5 7 C1.9375 7.625 1.9375 7.625 -1 8 C-0.67 5.36 -0.34 2.72 0 0 Z " fill="#0C1010" transform="translate(275,163)"/>
<path d="M0 0 C3.875 1.875 3.875 1.875 5 3 C5.04092937 5.33297433 5.04241723 7.66705225 5 10 C2 9 2 9 0 6 C-0.125 2.8125 -0.125 2.8125 0 0 Z " fill="#CDBDBD" transform="translate(317,199)"/>
<path d="M0 0 C1.32 0.33 2.64 0.66 4 1 C2.55922954 4.36179774 0.75249979 6.59156268 -2 9 C-2.66 9 -3.32 9 -4 9 C-3.46930939 5.17902761 -2.50298434 2.93828597 0 0 Z " fill="#D7C7C7" transform="translate(284,188)"/>
<path d="M0 0 C0.66 0.99 1.32 1.98 2 3 C-3.29230769 5.21538462 -3.29230769 5.21538462 -6.875 4.125 C-7.57625 3.75375 -8.2775 3.3825 -9 3 C-9 2.34 -9 1.68 -9 1 C-5.73842267 -0.08719244 -3.41589896 -0.29071481 0 0 Z " fill="#D1C1C1" transform="translate(265,160)"/>
<path d="M0 0 C6.47556391 0.61090226 6.47556391 0.61090226 8.9375 2.4375 C10 4 10 4 10 6 C6.29706315 6.33663062 4.60465619 6.47736015 1.625 4.125 C0 2 0 2 0 0 Z " fill="#D1C1C1" transform="translate(262,141)"/>
<path d="M0 0 C-0.98562757 3.31529273 -1.65447419 4.74949379 -4.5 6.8125 C-7 8 -7 8 -9 8 C-7.38794515 3.02949753 -5.53380518 0 0 0 Z " fill="#CDBDBD" transform="translate(346,129)"/>
<path d="M0 0 C2.5 1.625 2.5 1.625 5 4 C5.3125 7.25 5.3125 7.25 5 10 C2.525 9.01 2.525 9.01 0 8 C0 5.36 0 2.72 0 0 Z " fill="#CFBFBF" transform="translate(286,121)"/>
<path d="M0 0 C1.125 1.6875 1.125 1.6875 2 4 C1.22283171 6.51085141 0.17153984 8.65692033 -1 11 C-1.66 11 -2.32 11 -3 11 C-3.36923077 3.49230769 -3.36923077 3.49230769 -1.5 1 C-1.005 0.67 -0.51 0.34 0 0 Z " fill="#D1C1C1" transform="translate(292,200)"/>
<path d="M0 0 C1.32 0 2.64 0 4 0 C5.60725635 3.21451269 5.05748185 6.43612536 5 10 C4.34 10 3.68 10 3 10 C0.96564469 6.27034861 0 4.33094958 0 0 Z " fill="#DFCECE" transform="translate(310,193)"/>
<path d="M0 0 C3.625 -0.1875 3.625 -0.1875 7 0 C7.33 0.99 7.66 1.98 8 3 C2.58461538 5.21538462 2.58461538 5.21538462 -0.375 4.125 C-0.91125 3.75375 -1.4475 3.3825 -2 3 C-1.34 2.01 -0.68 1.02 0 0 Z " fill="#D2C2C2" transform="translate(343,156)"/>
<path d="M0 0 C6.875 3.625 6.875 3.625 8 7 C7.34 7 6.68 7 6 7 C6 7.66 6 8.32 6 9 C3.5067466 8.00269864 2.22532561 7.34925469 0.75 5.0625 C0 3 0 3 0 0 Z " fill="#DBC9C9" transform="translate(278,135)"/>
<path d="M0 0 C3.16115776 1.36983503 3.9927092 1.9890638 6 5 C6.125 7.6875 6.125 7.6875 6 10 C1.77202073 6.91709845 1.77202073 6.91709845 0 5 C-0.375 2.1875 -0.375 2.1875 0 0 Z " fill="#CDBDBD" transform="translate(324,203)"/>
<path d="M0 0 C0.66 0.33 1.32 0.66 2 1 C2.25 6.625 2.25 6.625 0 10 C-0.66 10 -1.32 10 -2 10 C-2.6875 7.25 -2.6875 7.25 -3 4 C-1.5625 1.625 -1.5625 1.625 0 0 Z " fill="#D0C0C0" transform="translate(301,202)"/>
<path d="M0 0 C3.65316671 1.24976756 4.78065836 1.67098753 7 5 C6.625 7.1875 6.625 7.1875 6 9 C1.3125 5.484375 1.3125 5.484375 0 4 C0 2.68 0 1.36 0 0 Z " fill="#D7C6C6" transform="translate(324,195)"/>
<path d="M0 0 C2.3125 0.1875 2.3125 0.1875 5 1 C8 5.03448276 8 5.03448276 8 8 C5.125 7.375 5.125 7.375 2 6 C0.625 2.875 0.625 2.875 0 0 Z " fill="#D0C0C0" transform="translate(331,189)"/>
<path d="M0 0 C5.5 -0.36666667 5.5 -0.36666667 7.875 1.375 C9 3 9 3 9 5 C3.5 5.36666667 3.5 5.36666667 1.125 3.625 C0 2 0 2 0 0 Z " fill="#D2C2C2" transform="translate(336,183)"/>
<path d="M0 0 C-3.32307692 4.8 -3.32307692 4.8 -6.75 5.8125 C-7.4925 5.874375 -8.235 5.93625 -9 6 C-9.33 5.01 -9.66 4.02 -10 3 C-6.48812804 0.59185923 -4.27343092 -0.36629408 0 0 Z " fill="#DDCBCB" transform="translate(340,146)"/>
<path d="M0 0 C2.875 0.625 2.875 0.625 6 2 C7.375 5.125 7.375 5.125 8 8 C5.125 7.375 5.125 7.375 2 6 C0.625 2.875 0.625 2.875 0 0 Z " fill="#D3C3C3" transform="translate(269,133)"/>
<path d="M0 0 C-0.49230769 6.52307692 -0.49230769 6.52307692 -3.0625 8.9375 C-3.701875 9.288125 -4.34125 9.63875 -5 10 C-5.3669579 3.51707705 -5.3669579 3.51707705 -3.625 1.0625 C-2 0 -2 0 0 0 Z " fill="#D1C1C1" transform="translate(287,205)"/>
<path d="M0 0 C0.25 2.25 0.25 2.25 0 5 C-1.875 7.3125 -1.875 7.3125 -4 9 C-4.66 9 -5.32 9 -6 9 C-6.3125 6.75 -6.3125 6.75 -6 4 C-1.78378378 0 -1.78378378 0 0 0 Z " fill="#D8C7C7" transform="translate(286,197)"/>
<path d="M0 0 C2.0625 0.4375 2.0625 0.4375 4 1 C2.75023244 4.65316671 2.32901247 5.78065836 -1 8 C-1.99 7.67 -2.98 7.34 -4 7 C-1.125 1.125 -1.125 1.125 0 0 Z " fill="#D8C8C8" transform="translate(275,192)"/>
<path d="M0 0 C-1.0625 1.9375 -1.0625 1.9375 -3 4 C-6.6875 4.75 -6.6875 4.75 -10 5 C-7.56198347 0.24586777 -7.56198347 0.24586777 -5 -0.875 C-3 -1 -3 -1 0 0 Z " fill="#D7C6C6" transform="translate(274,187)"/>
<path d="M0 0 C3.3125 -0.25 3.3125 -0.25 7 0 C8.9375 2 8.9375 2 10 4 C6.6868604 5.04127245 5.39801692 5.18574123 2.1875 3.6875 C1.465625 3.130625 0.74375 2.57375 0 2 C0 1.34 0 0.68 0 0 Z " fill="#DBCACA" transform="translate(258,151)"/>
<path d="M0 0 C1.134375 0.020625 2.26875 0.04125 3.4375 0.0625 C-0.87019231 4.98557692 -0.87019231 4.98557692 -4.375 5.375 C-5.4578125 5.2203125 -5.4578125 5.2203125 -6.5625 5.0625 C-4.14811644 0.07277397 -4.14811644 0.07277397 0 0 Z " fill="#DAC9C9" transform="translate(345.5625,146.9375)"/>
<path d="M0 0 C-1.0625 2.4375 -1.0625 2.4375 -3 5 C-6.6875 5.8125 -6.6875 5.8125 -10 6 C-7.09167817 0.84433858 -5.91982852 -0.15578496 0 0 Z " fill="#D4C3C3" transform="translate(344,138)"/>
<path d="M0 0 C4.83256305 0.41421969 6.82679218 2.46413986 10 6 C8.3125 6.8125 8.3125 6.8125 6 7 C3.48814606 4.8386373 1.49018781 2.98037561 0 0 Z " fill="#D0C0C0" transform="translate(259,133)"/>
<path d="M0 0 C0.3669579 6.48292295 0.3669579 6.48292295 -1.375 8.9375 C-3 10 -3 10 -5 10 C-4.38675022 3.49955237 -4.38675022 3.49955237 -2.5 1.0625 C-1 0 -1 0 0 0 Z " fill="#CDBDBD" transform="translate(326,115)"/>
<path d="M0 0 C1.5 1 1.5 1 3 3 C3.27345479 5.71846235 3.13491285 8.25677199 3 11 C2.34 11 1.68 11 1 11 C-1.08997373 7.60379269 -1.2632246 4.94836905 -1 1 C-0.67 0.67 -0.34 0.34 0 0 Z " fill="#DAC9C9" transform="translate(309,201)"/>
<path d="M0 0 C3.375 0.6875 3.375 0.6875 7 2 C8.4375 4.625 8.4375 4.625 9 7 C5.625 6.3125 5.625 6.3125 2 5 C0.5625 2.375 0.5625 2.375 0 0 Z " fill="#D6C5C5" transform="translate(339,190)"/>
<path d="M0 0 C2.9375 0.3125 2.9375 0.3125 4.9375 2.3125 C4.2775 2.9725 3.6175 3.6325 2.9375 4.3125 C0.7734375 4.2890625 0.7734375 4.2890625 -1.6875 3.9375 C-2.50476563 3.82664063 -3.32203125 3.71578125 -4.1640625 3.6015625 C-4.79054688 3.50617188 -5.41703125 3.41078125 -6.0625 3.3125 C-3.89068742 0.85543443 -3.42362209 0.34934919 0 0 Z " fill="#DBCACA" transform="translate(262.0625,169.6875)"/>
<path d="M0 0 C0 0.66 0 1.32 0 2 C-4.455 2.495 -4.455 2.495 -9 3 C-9.66 2.01 -10.32 1.02 -11 0 C-6.94952424 -1.35015859 -4.2079832 -0.62084998 0 0 Z " fill="#D9C8C8" transform="translate(352,167)"/>
<path d="M0 0 C0.93423645 3.01031744 1.04449911 3.86650268 0 7 C-2.5625 8.1875 -2.5625 8.1875 -5 9 C-5.3125 6.75 -5.3125 6.75 -5 4 C-2.5 1.6875 -2.5 1.6875 0 0 Z " fill="#DCCBCB" transform="translate(327,124)"/>
<path d="M0 0 C0.66 0 1.32 0 2 0 C2 2.64 2 5.28 2 8 C0.02 8.99 0.02 8.99 -2 10 C-2.1953125 3.9453125 -2.1953125 3.9453125 -2 2 C-1.34 1.34 -0.68 0.68 0 0 Z " fill="#D7C6C6" transform="translate(317,120)"/>
<path d="M0 0 C2.46800047 1.15173355 4.04783565 2.04783565 6 4 C6.125 6.625 6.125 6.625 6 9 C3.5067466 8.00269864 2.22532561 7.34925469 0.75 5.0625 C0 3 0 3 0 0 Z " fill="#D1C1C1" transform="translate(278,118)"/>
<path d="M0 0 C0.66 0 1.32 0 2 0 C3.26026798 2.52053595 2.91874445 3.8542098 2.5625 6.625 C2.40974609 7.85089844 2.40974609 7.85089844 2.25390625 9.1015625 C2.17011719 9.72804688 2.08632813 10.35453125 2 11 C-0.96875 8.3828125 -0.96875 8.3828125 -1.25 4.9375 C-1 2 -1 2 0 0 Z " fill="#D1C1C1" transform="translate(301,111)"/>
<path d="M0 0 C1.5625 1 1.5625 1 3 3 C2.96726452 5.76614782 2.49404328 8.26030547 2 11 C1.34 11 0.68 11 0 11 C-0.19491452 9.54263913 -0.38069358 8.08405407 -0.5625 6.625 C-0.66691406 5.81289062 -0.77132813 5.00078125 -0.87890625 4.1640625 C-1 2 -1 2 0 0 Z " fill="#D5C4C4" transform="translate(305,208)"/>
<path d="M0 0 C2.99324263 1.0975223 3.84610901 1.67682892 5.25 4.625 C5.4975 5.40875 5.745 6.1925 6 7 C3.36 7 0.72 7 -2 7 C-1.34 4.69 -0.68 2.38 0 0 Z " fill="#1D1F1F" transform="translate(300,196)"/>
<path d="M0 0 C0.721875 0.103125 1.44375 0.20625 2.1875 0.3125 C1.125 2.8125 1.125 2.8125 -0.8125 5.3125 C-4.5 5.625 -4.5 5.625 -7.8125 5.3125 C-3.50480769 0.38942308 -3.50480769 0.38942308 0 0 Z " fill="#E0CECE" transform="translate(266.8125,177.6875)"/>
<path d="M0 0 C-1 2 -1 2 -3 4 C-5.75372909 4.36933645 -8.20365661 4.18336678 -11 4 C-7.65667474 -0.27945633 -5.29105716 -0.4070044 0 0 Z " fill="#DAC9C9" transform="translate(262,176)"/>
<path d="M0 0 C4.7517398 0.43197635 6.92000054 1.32769295 10 5 C3.51707705 5.3669579 3.51707705 5.3669579 1.0625 3.625 C0 2 0 2 0 0 Z " fill="#E3D1D1" transform="translate(340,174)"/>
<path d="M0 0 C0.33 0 0.66 0 1 0 C1 3.3 1 6.6 1 10 C-0.32 10 -1.64 10 -3 10 C-2.25 3.375 -2.25 3.375 0 0 Z " fill="#E3D1D1" transform="translate(311,126)"/>
<path d="M0 0 C-0.34069235 3.15140423 -0.58076841 4.60781561 -2.9375 6.8125 C-5 8 -5 8 -7 8 C-6.40138258 5.64828869 -5.73075648 3.3140622 -5 1 C-3 0 -3 0 0 0 Z " fill="#D4C3C3" transform="translate(278,201)"/>
<path d="M0 0 C2.375 0.625 2.375 0.625 5 2 C6.3125 5.125 6.3125 5.125 7 8 C4.08482708 6.92598892 2.22189824 6.22189824 0 4 C0 2.68 0 1.36 0 0 Z " fill="#D6C5C5" transform="translate(333,198)"/>
<path d="M0 0 C-0.1875 1.8125 -0.1875 1.8125 -1 4 C-3.4375 5.8125 -3.4375 5.8125 -6 7 C-6.66 6.67 -7.32 6.34 -8 6 C-4.61538462 0 -4.61538462 0 0 0 Z " fill="#DBCACA" transform="translate(270,194)"/>
<path d="M0 0 C1.98 0.66 3.96 1.32 6 2 C5 4 5 4 2.1875 5.1875 C-0.85961076 5.96421451 -2.13749363 6.10096399 -5 5 C-3.35 3.35 -1.7 1.7 0 0 Z " fill="#BDAFAF" transform="translate(283,173)"/>
<path d="M0 0 C0.33 0.66 0.66 1.32 1 2 C-2.25 2.75 -2.25 2.75 -6 3 C-8.4375 1.0625 -8.4375 1.0625 -10 -1 C-6.02972626 -2.32342458 -3.88343142 -1.36639254 0 0 Z " fill="#D9C8C8" transform="translate(357,173)"/>
<path d="M0 0 C-0.33 0.99 -0.66 1.98 -1 3 C-3.64 3 -6.28 3 -9 3 C-9.33 2.34 -9.66 1.68 -10 1 C-6.42181037 -1.33958553 -4.07775191 -0.9267618 0 0 Z " fill="#D4C3C3" transform="translate(259,166)"/>
<path d="M0 0 C3.375 -0.125 3.375 -0.125 7 0 C7.66 0.66 8.32 1.32 9 2 C5.1496895 4.56687367 3.41430237 3.83288724 -1 3 C-0.67 2.01 -0.34 1.02 0 0 Z " fill="#D7C6C6" transform="translate(350,161)"/>
<path d="M0 0 C7.50769231 -0.36923077 7.50769231 -0.36923077 10 1.5 C10.495 2.2425 10.495 2.2425 11 3 C7.75 3.75 7.75 3.75 4 4 C1.5625 2.0625 1.5625 2.0625 0 0 Z " fill="#D8C7C7" transform="translate(250,155)"/>
<path d="M0 0 C-1.5625 2 -1.5625 2 -4 4 C-7.75 4.25 -7.75 4.25 -11 4 C-7.65667474 -0.27945633 -5.29105716 -0.4070044 0 0 Z " fill="#DDCBCB" transform="translate(357,150)"/>
<path d="M0 0 C2.97 0.33 5.94 0.66 9 1 C8.67 2.65 8.34 4.3 8 6 C5.0280615 4.87548273 2.66559313 3.77706209 0 2 C0 1.34 0 0.68 0 0 Z " fill="#BAADAD" transform="translate(267,149)"/>
<path d="M0 0 C2.31 0 4.62 0 7 0 C7.66 1.65 8.32 3.3 9 5 C3.46153846 4.50769231 3.46153846 4.50769231 1.125 1.9375 C0.75375 1.298125 0.3825 0.65875 0 0 Z " fill="#D3C2C2" transform="translate(254,144)"/>
<path d="M0 0 C-1.25 2.9375 -1.25 2.9375 -3 6 C-5.1875 6.875 -5.1875 6.875 -7 7 C-6.75 4.125 -6.75 4.125 -6 1 C-2.77922078 -1.38961039 -2.77922078 -1.38961039 0 0 Z " fill="#DFCDCD" transform="translate(337,131)"/>
<path d="M0 0 C3.53647504 1.67517239 4.7911563 2.49280817 6.3125 6.1875 C6.539375 7.115625 6.76625 8.04375 7 9 C2.36285097 7.53563715 2.36285097 7.53563715 0.6875 5.0625 C0 3 0 3 0 0 Z " fill="#DECDCD" transform="translate(277,126)"/>
<path d="M0 0 C2.9375 1.1875 2.9375 1.1875 6 3 C6.875 5.6875 6.875 5.6875 7 8 C4.625 7.375 4.625 7.375 2 6 C0.6875 2.875 0.6875 2.875 0 0 Z " fill="#D8C7C7" transform="translate(268,124)"/>
<path d="M0 0 C0.66 0.66 1.32 1.32 2 2 C1.53846154 8.46153846 1.53846154 8.46153846 -1 11 C-2.38550197 8.22899606 -2.1877467 6.0665294 -2 3 C-1.34 2.01 -0.68 1.02 0 0 Z " fill="#DBCACA" transform="translate(307,118)"/>
<path d="M0 0 C3 1 3 1 4 3 C4.039992 4.99960012 4.04346799 7.00047242 4 9 C3.01 9.495 3.01 9.495 2 10 C-0.4294516 6.3558226 -0.16179575 4.28758728 0 0 Z " fill="#DFCDCD" transform="translate(296,119)"/>
<path d="M0 0 C1.98 0.99 1.98 0.99 4 2 C4 4.31 4 6.62 4 9 C3.01 8.67 2.02 8.34 1 8 C-0.35439668 5.29120665 -0.06501451 2.99066732 0 0 Z " fill="#D7C6C6" transform="translate(315,208)"/>
<path d="M0 0 C0.5625 1.9375 0.5625 1.9375 1 4 C0 5 0 5 -3.5625 5.0625 C-4.696875 5.041875 -5.83125 5.02125 -7 5 C-7 4.34 -7 3.68 -7 3 C-6.34 3 -5.68 3 -5 3 C-5 2.34 -5 1.68 -5 1 C-3 0 -3 0 0 0 Z " fill="#C3B4B4" transform="translate(255,183)"/>
<path d="M0 0 C3.2542015 2.83430453 4.5206753 4.68607774 5 9 C1.535 7.02 1.535 7.02 -2 5 C-2 4.34 -2 3.68 -2 3 C-1.34 3 -0.68 3 0 3 C0 2.01 0 1.02 0 0 Z " fill="#D7C6C6" transform="translate(318,178)"/>
<path d="M0 0 C0.66 0 1.32 0 2 0 C2 2.64 2 5.28 2 8 C0.68 8 -0.64 8 -2 8 C-2.20086443 4.28400809 -2.1519437 3.22791555 0 0 Z " fill="#D9C8C8" transform="translate(313,112)"/>
<path d="M0 0 C0.99 0.33 1.98 0.66 3 1 C2.125 6.75 2.125 6.75 1 9 C0.34 9 -0.32 9 -1 9 C-1.09765625 2.84765625 -1.09765625 2.84765625 -1 1 C-0.67 0.67 -0.34 0.34 0 0 Z " fill="#DECDCD" transform="translate(294,209)"/>
<path d="M0 0 C2.64 0.33 5.28 0.66 8 1 C8 1.66 8 2.32 8 3 C4.91190305 4.76462683 3.76687864 5 0 5 C0 3.35 0 1.7 0 0 Z " fill="#C2B3B3" transform="translate(336,161)"/>
<path d="M0 0 C2.33944736 0.28730055 4.6739143 0.61936779 7 1 C7 1.66 7 2.32 7 3 C4.35261084 4.4606285 3.10551666 5 0 5 C-0.5625 3.0625 -0.5625 3.0625 -1 1 C-0.67 0.67 -0.34 0.34 0 0 Z " fill="#D0C0C0" transform="translate(356,154)"/>
<path d="M0 0 C-1.6875 2.5 -1.6875 2.5 -4 5 C-6.75 5.3125 -6.75 5.3125 -9 5 C-6.81610567 0.16423399 -5.20641855 -0.13701101 0 0 Z " fill="#DAC9C9" transform="translate(353,139)"/>
<path d="M0 0 C-0.8125 2.9375 -0.8125 2.9375 -2 6 C-2.99 6.33 -3.98 6.66 -5 7 C-5.66 6.67 -6.32 6.34 -7 6 C-5.52522876 2.59668175 -4.14385429 0 0 0 Z " fill="#CBBBBB" transform="translate(345,121)"/>
<path d="M0 0 C0.66 0 1.32 0 2 0 C4.29013653 3.4352048 4.17842973 4.985331 4 9 C2.68 8.34 1.36 7.68 0 7 C0 4.69 0 2.38 0 0 Z " fill="#DAC9C9" transform="translate(289,113)"/>
<path d="M0 0 C0.66 0 1.32 0 2 0 C2 0.66 2 1.32 2 2 C2.66 2.33 3.32 2.66 4 3 C-0.75 7 -0.75 7 -3 7 C-2.25 2.25 -2.25 2.25 0 0 Z " fill="#CDBDBD" transform="translate(266,202)"/>
<path d="M0 0 C0.99 0.33 1.98 0.66 3 1 C4.1875 4.0625 4.1875 4.0625 5 7 C2.0625 6.1875 2.0625 6.1875 -1 5 C-1.33 4.01 -1.66 3.02 -2 2 C-1.34 2 -0.68 2 0 2 C0 1.34 0 0.68 0 0 Z " fill="#CCBCBC" transform="translate(343,198)"/>
<path d="M0 0 C1.11375 0.1546875 1.11375 0.1546875 2.25 0.3125 C1.6875 2.25 1.6875 2.25 0.25 4.3125 C-3.375 5.0625 -3.375 5.0625 -6.75 5.3125 C-3.42692308 0.38942308 -3.42692308 0.38942308 0 0 Z " fill="#E0CECE" transform="translate(261.75,185.6875)"/>
<path d="M0 0 C2.8125 -0.25 2.8125 -0.25 6 0 C7.875 2 7.875 2 9 4 C6.69 4 4.38 4 2 4 C1.34 2.68 0.68 1.36 0 0 Z " fill="#DCCBCB" transform="translate(345,182)"/>
<path d="M0 0 C1.5 1.375 1.5 1.375 3 3 C3 3.66 3 4.32 3 5 C-1.455 5.495 -1.455 5.495 -6 6 C-2.25 1.125 -2.25 1.125 0 0 Z " fill="#CBBBBB" transform="translate(274,178)"/>
<path d="M0 0 C0.5625 1.9375 0.5625 1.9375 1 4 C0.67 4.33 0.34 4.66 0 5 C-2.33944736 4.71269945 -4.6739143 4.38063221 -7 4 C-3.375 0 -3.375 0 0 0 Z " fill="#D2C2C2" transform="translate(252,171)"/>
<path d="M0 0 C0 1.32 0 2.64 0 4 C-2.97 3.505 -2.97 3.505 -6 3 C-6.33 2.01 -6.66 1.02 -7 0 C-3.86650268 -1.04449911 -3.01031744 -0.93423645 0 0 Z " fill="#CBBBBB" transform="translate(252,160)"/>
<path d="M0 0 C-0.66 2.31 -1.32 4.62 -2 7 C-3.65 7.33 -5.3 7.66 -7 8 C-4.18918919 0 -4.18918919 0 0 0 Z " fill="#DCCBCB" transform="translate(337,121)"/>
<path d="M0 0 C2.4375 0.8125 2.4375 0.8125 5 2 C5.33 2.99 5.66 3.98 6 5 C5.34 5 4.68 5 4 5 C4 5.66 4 6.32 4 7 C3.01 6.67 2.02 6.34 1 6 C0.67 4.02 0.34 2.04 0 0 Z " fill="#D1C1C1" transform="translate(270,117)"/>
<path d="M0 0 C0.66 0 1.32 0 2 0 C2 0.66 2 1.32 2 2 C2.66 2.33 3.32 2.66 4 3 C2.75 4.5 2.75 4.5 1 6 C-0.32 6 -1.64 6 -3 6 C-1.125 1.125 -1.125 1.125 0 0 Z " fill="#CFBFBF" transform="translate(258,193)"/>
<path d="M0 0 C2.375 0.25 2.375 0.25 5 1 C6.3125 3.0625 6.3125 3.0625 7 5 C4.125 5.1875 4.125 5.1875 1 5 C0.34 4.01 -0.32 3.02 -1 2 C-0.67 1.34 -0.34 0.68 0 0 Z " fill="#D4C4C4" transform="translate(349,189)"/>
<path d="M0 0 C1.98 0 3.96 0 6 0 C6.33 0.66 6.66 1.32 7 2 C3.375 5 3.375 5 0 5 C-0.33 4.01 -0.66 3.02 -1 2 C-0.67 1.34 -0.34 0.68 0 0 Z " fill="#CDBDBD" transform="translate(353,142)"/>
<path d="M0 0 C-0.25 1.875 -0.25 1.875 -1 4 C-3.0625 5.25 -3.0625 5.25 -5 6 C-5 5.34 -5 4.68 -5 4 C-5.66 3.67 -6.32 3.34 -7 3 C-5.40442685 -0.19114631 -3.35905282 0 0 0 Z " fill="#D6C5C5" transform="translate(353,131)"/>
<path d="M0 0 C0.66 0 1.32 0 2 0 C3.6875 2.3125 3.6875 2.3125 5 5 C4.67 5.99 4.34 6.98 4 8 C2.66666667 8 1.33333333 8 0 8 C0 5.36 0 2.72 0 0 Z " fill="#D4C3C3" transform="translate(293,127)"/>
<path d="M0 0 C2.9375 0.8125 2.9375 0.8125 6 2 C6.33 2.99 6.66 3.98 7 5 C6.34 5 5.68 5 5 5 C4.67 5.66 4.34 6.32 4 7 C1.49962266 4.82575883 0.56371414 3.26954202 0 0 Z " fill="#D4C4C4" transform="translate(260,125)"/>
<path d="M0 0 C0.66 0.33 1.32 0.66 2 1 C2.75 3.4375 2.75 3.4375 3 6 C2.34 6.66 1.68 7.32 1 8 C0.01 8 -0.98 8 -2 8 C-2.20086443 4.28400809 -2.1519437 3.22791555 0 0 Z " fill="#D5C4C4" transform="translate(308,106)"/>
<path d="M0 0 C0.66 0.33 1.32 0.66 2 1 C2 2.98 2 4.96 2 7 C0.0625 6.25 0.0625 6.25 -2 5 C-2.75 2.875 -2.75 2.875 -3 1 C-2.01 0.67 -1.02 0.34 0 0 Z " fill="#D6C5C5" transform="translate(324,212)"/>
<path d="M0 0 C0.99 0.33 1.98 0.66 3 1 C3.33 2.98 3.66 4.96 4 7 C1.5625 6.1875 1.5625 6.1875 -1 5 C-1.33 4.01 -1.66 3.02 -2 2 C-1.34 2 -0.68 2 0 2 C0 1.34 0 0.68 0 0 Z " fill="#D6C5C5" transform="translate(334,206)"/>
<path d="M0 0 C0.33 0.66 0.66 1.32 1 2 C0.22265625 3.9453125 0.22265625 3.9453125 -0.9375 6.125 C-1.31777344 6.84945312 -1.69804687 7.57390625 -2.08984375 8.3203125 C-2.39019531 8.87460938 -2.69054687 9.42890625 -3 10 C-3.33 10 -3.66 10 -4 10 C-4 7.36 -4 4.72 -4 2 C-2.68 1.34 -1.36 0.68 0 0 Z " fill="#DFCECE" transform="translate(302,183)"/>
<path d="M0 0 C2.97 0.495 2.97 0.495 6 1 C6 1.99 6 2.98 6 4 C4.35 4.33 2.7 4.66 1 5 C0.67 3.35 0.34 1.7 0 0 Z " fill="#D7C7C7" transform="translate(356,166)"/>
<path d="M0 0 C2.97 0.33 5.94 0.66 9 1 C8.67 1.66 8.34 2.32 8 3 C5.35139573 3.59355614 2.70802678 3.74209269 0 4 C0 2.68 0 1.36 0 0 Z " fill="#DFCDCD" transform="translate(324,162)"/>
<path d="M0 0 C2.875 -0.1875 2.875 -0.1875 6 0 C6.66 0.99 7.32 1.98 8 3 C7.34 3 6.68 3 6 3 C6 3.66 6 4.32 6 5 C4.125 4.75 4.125 4.75 2 4 C0.75 1.9375 0.75 1.9375 0 0 Z " fill="#D8C7C7" transform="translate(252,136)"/>
<path d="M0 0 C-0.59861742 2.35171131 -1.26924352 4.6859378 -2 7 C-2.99 7.495 -2.99 7.495 -4 8 C-4.33 7.34 -4.66 6.68 -5 6 C-5.66 6 -6.32 6 -7 6 C-7 5.34 -7 4.68 -7 4 C-2.52941176 0 -2.52941176 0 0 0 Z " fill="#D3C3C3" transform="translate(328,133)"/>
<path d="M0 0 C1.9375 0.75 1.9375 0.75 4 2 C4.75 4.125 4.75 4.125 5 6 C3.0625 6.5625 3.0625 6.5625 1 7 C0 6 0 6 -0.0625 2.9375 C-0.041875 1.968125 -0.02125 0.99875 0 0 Z " fill="#DAC9C9" transform="translate(282,111)"/>
<path d="M0 0 C1.5 1.25 1.5 1.25 3 3 C3 4.32 3 5.64 3 7 C1.68 7.33 0.36 7.66 -1 8 C-1.04241723 5.66705225 -1.04092937 3.33297433 -1 1 C-0.67 0.67 -0.34 0.34 0 0 Z " fill="#D8C7C7" transform="translate(295,107)"/>
<path d="M0 0 C0.99 0.33 1.98 0.66 3 1 C2.75 2.875 2.75 2.875 2 5 C-0.0625 6.25 -0.0625 6.25 -2 7 C-2.125 4.625 -2.125 4.625 -2 2 C-1.34 1.34 -0.68 0.68 0 0 Z " fill="#E0CECE" transform="translate(276,209)"/>
<path d="M0 0 C2 1.8125 2 1.8125 4 4 C4 4.99 4 5.98 4 7 C0.73045798 6.43628586 -0.82575883 5.50037734 -3 3 C-2.01 3 -1.02 3 0 3 C0 2.01 0 1.02 0 0 Z " fill="#D5C5C5" transform="translate(326,187)"/>
<path d="M0 0 C2.64 0 5.28 0 8 0 C7.67 1.32 7.34 2.64 7 4 C4.625 3.6875 4.625 3.6875 2 3 C1.34 2.01 0.68 1.02 0 0 Z " fill="#DAC9C9" transform="translate(247,148)"/>
<path d="M0 0 C3.2542015 2.83430453 4.5206753 4.68607774 5 9 C3.35 8.67 1.7 8.34 0 8 C0 5.36 0 2.72 0 0 Z " fill="#D7C7C7" transform="translate(296,137)"/>
<path d="M0 0 C0 0.99 0 1.98 0 3 C0.66 3.33 1.32 3.66 2 4 C1.01 5.485 1.01 5.485 0 7 C-0.33 5.35 -0.66 3.7 -1 2 C-2.32 2.33 -3.64 2.66 -5 3 C-5 2.34 -5 1.68 -5 1 C-5.66 0.67 -6.32 0.34 -7 0 C-3.98968256 -0.93423645 -3.13349732 -1.04449911 0 0 Z " fill="#2E2E2E" transform="translate(271,192)"/>
<path d="M0 0 C2.375 0.3125 2.375 0.3125 5 1 C5.66 1.99 6.32 2.98 7 4 C4.69 4 2.38 4 0 4 C-0.33 3.34 -0.66 2.68 -1 2 C-0.67 1.34 -0.34 0.68 0 0 Z " fill="#DFCECE" transform="translate(354,178)"/>
<path d="M0 0 C0.66 0 1.32 0 2 0 C1.625 2.9375 1.625 2.9375 1 6 C0.01 6.495 0.01 6.495 -1 7 C-1.66 6.67 -2.32 6.34 -3 6 C-2.42655063 3.13275314 -2.1385485 2.1385485 0 0 Z " fill="#E1D0D0" transform="translate(332,114)"/>
<path d="M0 0 C1.32 0 2.64 0 4 0 C3.67 2.31 3.34 4.62 3 7 C1.5 5.75 1.5 5.75 0 4 C0 2.68 0 1.36 0 0 Z " fill="#E2D0D0" transform="translate(310,216)"/>
<path d="M0 0 C1.32 0 2.64 0 4 0 C3.625 2.9375 3.625 2.9375 3 6 C2.01 6.495 2.01 6.495 1 7 C0.67 4.69 0.34 2.38 0 0 Z " fill="#DECDCD" transform="translate(298,217)"/>
<path d="M0 0 C1.32 0.33 2.64 0.66 4 1 C3.67 2.65 3.34 4.3 3 6 C2.01 6.33 1.02 6.66 0 7 C0 4.69 0 2.38 0 0 Z " fill="#DDCCCC" transform="translate(286,214)"/>
<path d="M0 0 C0.33 0.66 0.66 1.32 1 2 C1.99 1.67 2.98 1.34 4 1 C3.44855089 5.08072342 3.08669204 5.91330796 0 9 C0 6.03 0 3.06 0 0 Z " fill="#D8C7C7" transform="translate(296,195)"/>
<path d="M0 0 C0.99 0.33 1.98 0.66 3 1 C2.67 3.31 2.34 5.62 2 8 C1.01 8 0.02 8 -1 8 C-0.67 6.35 -0.34 4.7 0 3 C-0.66 2.67 -1.32 2.34 -2 2 C-1.34 1.34 -0.68 0.68 0 0 Z " fill="#0A0E0E" transform="translate(278,197)"/>
<path d="M0 0 C2.31 0 4.62 0 7 0 C7.33 0.66 7.66 1.32 8 2 C7.34 2 6.68 2 6 2 C5.67 2.99 5.34 3.98 5 5 C3.35 3.35 1.7 1.7 0 0 Z " fill="#D5C5C5" transform="translate(278,154)"/>
<path d="M0 0 C0.33 0.99 0.66 1.98 1 3 C-0.4375 5.6875 -0.4375 5.6875 -2 8 C-2.33 7.01 -2.66 6.02 -3 5 C-3.66 4.67 -4.32 4.34 -5 4 C-3.35 2.68 -1.7 1.36 0 0 Z " fill="#E1CFCF" transform="translate(320,142)"/>
<path d="M0 0 C0.66 0 1.32 0 2 0 C2.36923077 5.41538462 2.36923077 5.41538462 0.5 8.375 C0.005 8.91125 -0.49 9.4475 -1 10 C-1.125 3.375 -1.125 3.375 0 0 Z " fill="#B5A8A8" transform="translate(301,171)"/>
<path d="M0 0 C7.75 1.875 7.75 1.875 10 3 C10 3.66 10 4.32 10 5 C5.2482602 4.56802365 3.07999946 3.67230705 0 0 Z " fill="#B7AAAA" transform="translate(288,158)"/>
<path d="M0 0 C0.66 0 1.32 0 2 0 C2 2.31 2 4.62 2 7 C0.68 6.67 -0.64 6.34 -2 6 C-1.49396008 3.83125748 -1.00016187 2.00032373 0 0 Z " fill="#E4D2D2" transform="translate(320,109)"/>
<path d="M0 0 C3.36720387 1.39332574 4.9859524 2.9789286 7 6 C6.67 6.66 6.34 7.32 6 8 C1.125 3.375 1.125 3.375 0 0 Z " fill="#C0B1B1" transform="translate(307,169)"/>
<path d="M0 0 C0 0.66 0 1.32 0 2 C-5.17578125 5.22265625 -5.17578125 5.22265625 -7 6 C-7.99 5.67 -8.98 5.34 -10 5 C-8.71186658 4.16121545 -7.41936744 3.32913217 -6.125 2.5 C-5.40570313 2.0359375 -4.68640625 1.571875 -3.9453125 1.09375 C-2 0 -2 0 0 0 Z " fill="#C8B9B9" transform="translate(298,167)"/>
<path d="M0 0 C2.35448165 2.55068845 2.98327924 3.71017358 3.1875 7.25 C3.125625 8.1575 3.06375 9.065 3 10 C0.64551835 7.44931155 0.01672076 6.28982642 -0.1875 2.75 C-0.125625 1.8425 -0.06375 0.935 0 0 Z " fill="#B0A3A3" transform="translate(299,149)"/>
</svg>
